%TF.GenerationSoftware,KiCad,Pcbnew,7.0.9-7.0.9~ubuntu22.04.1*%
%TF.CreationDate,2025-03-11T13:54:09+02:00*%
%TF.ProjectId,MOD-LCD2.8RTP_Rev_D,4d4f442d-4c43-4443-922e-385254505f52,D*%
%TF.SameCoordinates,PX2aea540PY8677d40*%
%TF.FileFunction,Paste,Top*%
%TF.FilePolarity,Positive*%
%FSLAX46Y46*%
G04 Gerber Fmt 4.6, Leading zero omitted, Abs format (unit mm)*
G04 Created by KiCad (PCBNEW 7.0.9-7.0.9~ubuntu22.04.1) date 2025-03-11 13:54:09*
%MOMM*%
%LPD*%
G01*
G04 APERTURE LIST*
G04 Aperture macros list*
%AMOutline4P*
0 Free polygon, 4 corners , with rotation*
0 The origin of the aperture is its center*
0 number of corners: always 4*
0 $1 to $8 corner X, Y*
0 $9 Rotation angle, in degrees counterclockwise*
0 create outline with 4 corners*
4,1,4,$1,$2,$3,$4,$5,$6,$7,$8,$1,$2,$9*%
G04 Aperture macros list end*
%ADD10R,1.016000X1.016000*%
%ADD11R,1.000000X1.400000*%
%ADD12R,0.325000X1.270000*%
%ADD13R,0.500000X0.550000*%
%ADD14R,0.980000X0.230000*%
%ADD15Outline4P,-0.850000X-2.275000X0.850000X-2.275000X0.850000X2.275000X-0.850000X2.275000X0.000000*%
%ADD16C,1.000000*%
%ADD17R,2.700000X4.300000*%
%ADD18R,0.230000X1.200000*%
G04 APERTURE END LIST*
D10*
%TO.C,C1*%
X24850000Y62260000D03*
X26628000Y62260000D03*
%TD*%
%TO.C,C2*%
X6308000Y35590000D03*
X8086000Y35590000D03*
%TD*%
%TO.C,C3*%
X8594000Y63403000D03*
X10372000Y63403000D03*
%TD*%
D11*
%TO.C,FET1*%
X12337960Y61383440D03*
X10435500Y61383440D03*
X11390540Y59173640D03*
%TD*%
D10*
%TO.C,R1*%
X23199000Y64038000D03*
X23199000Y62260000D03*
%TD*%
%TO.C,R2*%
X21548000Y64038000D03*
X21548000Y62260000D03*
%TD*%
%TO.C,R3*%
X19897000Y64038000D03*
X19897000Y62260000D03*
%TD*%
%TO.C,R4*%
X18246000Y64038000D03*
X18246000Y62260000D03*
%TD*%
D12*
%TO.C,U1*%
X6431000Y38193500D03*
X7081000Y38193500D03*
X7731000Y38193500D03*
X8381000Y38193500D03*
X9031000Y38193500D03*
X9681000Y38193500D03*
X10331000Y38193500D03*
X10981000Y38193500D03*
X11631000Y38193500D03*
X12281000Y38193500D03*
X12281000Y45432500D03*
X11631000Y45432500D03*
X10981000Y45432500D03*
X10331000Y45432500D03*
X9681000Y45432500D03*
X9031000Y45432500D03*
X8381000Y45432500D03*
X7731000Y45432500D03*
X7081000Y45432500D03*
X6431000Y45432500D03*
%TD*%
D10*
%TO.C,R7*%
X10626000Y35590000D03*
X12404000Y35590000D03*
%TD*%
%TO.C,R8*%
X15071000Y43464000D03*
X16849000Y43464000D03*
%TD*%
%TO.C,R9*%
X15071000Y45242000D03*
X16849000Y45242000D03*
%TD*%
%TO.C,R5*%
X12277000Y65054000D03*
X12277000Y63276000D03*
%TD*%
%TO.C,R6*%
X14055000Y60355000D03*
X14055000Y62133000D03*
%TD*%
%TO.C,C4*%
X29422000Y62260000D03*
X29422000Y64038000D03*
%TD*%
%TO.C,R10*%
X31073000Y64038000D03*
X31073000Y62260000D03*
%TD*%
D13*
%TO.C,C5*%
X12150000Y51973000D03*
X13166000Y51973000D03*
%TD*%
D10*
%TO.C,C6*%
X11896000Y50449000D03*
X13674000Y50449000D03*
%TD*%
D14*
%TO.C,U2*%
X11121000Y53132000D03*
X11121000Y53632000D03*
X11121000Y54132000D03*
X11121000Y54632000D03*
X11121000Y55132000D03*
X6321000Y55132000D03*
X6321000Y54632000D03*
X6321000Y54132000D03*
X6321000Y53632000D03*
X6321000Y53132000D03*
%TD*%
D15*
%TO.C,UEXT1*%
X19920000Y75225000D03*
X19920000Y68975000D03*
X22460000Y75225000D03*
X22460000Y68975000D03*
X25000000Y75225000D03*
X25000000Y68975000D03*
X27540000Y75225000D03*
X27540000Y68975000D03*
X30080000Y75225000D03*
X30080000Y68975000D03*
%TD*%
D16*
%TO.C,FID2*%
X48400000Y1600000D03*
%TD*%
%TO.C,FID4*%
X1600000Y84400000D03*
%TD*%
D17*
%TO.C,LCD1*%
X18600000Y56450000D03*
D18*
X20750000Y58800000D03*
X21250000Y58800000D03*
X21750000Y58800000D03*
X22250000Y58800000D03*
X22750000Y58800000D03*
X23250000Y58800000D03*
X23750000Y58800000D03*
X24250000Y58800000D03*
X24750000Y58800000D03*
X25250000Y58800000D03*
X25750000Y58800000D03*
X26250000Y58800000D03*
X26750000Y58800000D03*
X27250000Y58800000D03*
X27750000Y58800000D03*
X28250000Y58800000D03*
X28750000Y58800000D03*
X29250000Y58800000D03*
D17*
X31400000Y56450000D03*
%TD*%
M02*
