M48
; DRILL file {KiCad 7.0.9-7.0.9~ubuntu22.04.1} date 11.03.2025 (вт) 13:54:18
; FORMAT={-:-/ absolute / metric / decimal}
; #@! TF.CreationDate,2025-03-11T13:54:18+02:00
; #@! TF.GenerationSoftware,Kicad,Pcbnew,7.0.9-7.0.9~ubuntu22.04.1
; #@! TF.FileFunction,Plated,1,2,PTH
FMAT,2
METRIC
; #@! TA.AperFunction,Plated,PTH,ViaDrill
T1C0.400
; #@! TA.AperFunction,Plated,PTH,ViaDrill
T2C0.600
%
G90
G05
T1
X0.974Y75.341
X0.974Y65.308
X0.974Y58.958
X0.974Y53.37
X0.974Y47.147
X1.101Y43.845
X1.101Y35.209
X1.101Y27.716
X1.101Y22.001
X1.101Y14.889
X1.736Y73.563
X1.736Y54.64
X2.117Y10.698
X2.371Y44.48
X2.625Y40.162
X3.133Y70.642
X3.387Y50.703
X3.641Y60.609
X4.403Y43.718
X4.53Y65.054
X4.53Y47.274
X4.911Y37.114
X5.8Y70.642
X6.308Y52.354
X6.435Y65.054
X6.562Y18.826
X7.07Y77.5
X7.07Y42.194
X7.324Y36.86
X7.578Y84.866
X7.578Y39.908
X8.34Y36.86
X11.007Y36.86
X11.769Y25.43
X12.023Y36.86
X12.118Y55.878
X12.15Y81.564
X12.277Y13.492
X13.039Y55.021
X13.42Y76.484
X13.42Y36.733
X13.928Y73.436
X13.928Y54.132
X14.055Y48.925
X14.055Y47.147
X14.436Y39.654
X14.817Y58.45
X14.817Y53.243
X15.833Y59.339
X15.833Y48.925
X15.833Y47.528
X16.976Y74.452
X17.484Y84.866
X17.738Y32.288
X18.246Y18.826
X18.627Y47.147
X20.786Y56.037
X20.786Y54.894
X21.294Y70.515
X21.548Y81.056
X21.675Y56.926
X23.834Y69.626
X23.834Y40.416
X24.342Y25.684
X24.596Y13.873
X24.977Y84.866
X25.104Y52.735
X30.311Y47.147
X30.438Y32.034
X30.438Y18.826
X31.073Y80.802
X32.597Y72.039
X36.153Y76.611
X36.28Y84.866
X36.407Y66.07
X36.661Y52.735
X36.788Y40.416
X36.915Y25.557
X37.423Y14.254
X40.852Y80.675
X42.249Y31.653
X42.249Y18.699
X42.503Y71.023
X42.503Y47.147
X42.63Y59.974
X47.583Y10.698
X47.964Y76.738
X48.599Y66.07
X48.599Y52.608
X48.599Y14.127
X48.726Y40.416
X48.726Y25.303
T2
X4.53Y53.726
X4.53Y29.24
X5.038Y61.752
X5.165Y55.656
X5.546Y45.496
X6.308Y34.447
X8.34Y57.18
X8.34Y50.322
X8.34Y43.845
X8.594Y64.927
X9.737Y41.178
X10.372Y50.449
X11.134Y66.578
X11.134Y65.435
X13.801Y42.448
X15.833Y51.211
X16.468Y65.181
X16.468Y64.038
X16.595Y57.307
X16.976Y69.626
X18.119Y69.626
X18.627Y77.5
X25.358Y65.689
X26.628Y64.673
X26.628Y63.403
X29.295Y56.291
X29.422Y65.308
X30.184Y60.355
X31.073Y65.308
T0
M30
