%TF.GenerationSoftware,KiCad,Pcbnew,7.0.9-7.0.9~ubuntu22.04.1*%
%TF.CreationDate,2025-03-11T13:54:10+02:00*%
%TF.ProjectId,MOD-LCD2.8RTP_Rev_D,4d4f442d-4c43-4443-922e-385254505f52,D*%
%TF.SameCoordinates,PX2aea540PY8677d40*%
%TF.FileFunction,Legend,Bot*%
%TF.FilePolarity,Positive*%
%FSLAX46Y46*%
G04 Gerber Fmt 4.6, Leading zero omitted, Abs format (unit mm)*
G04 Created by KiCad (PCBNEW 7.0.9-7.0.9~ubuntu22.04.1) date 2025-03-11 13:54:10*
%MOMM*%
%LPD*%
G01*
G04 APERTURE LIST*
%ADD10C,0.635000*%
%ADD11C,0.508000*%
%ADD12C,0.254000*%
%ADD13C,0.700000*%
%ADD14C,0.100000*%
%ADD15C,0.500000*%
%ADD16C,0.400000*%
G04 APERTURE END LIST*
D10*
G36*
X17900687Y3386506D02*
G01*
X17948774Y3338419D01*
X18013166Y3209636D01*
X18013166Y2875730D01*
X17948774Y2746947D01*
X17900688Y2698860D01*
X17771904Y2634468D01*
X17437999Y2634468D01*
X17309215Y2698860D01*
X17261128Y2746947D01*
X17196737Y2875730D01*
X17196737Y3209636D01*
X17261128Y3338419D01*
X17309214Y3386505D01*
X17438000Y3450897D01*
X17771905Y3450897D01*
X17900687Y3386506D01*
G37*
G36*
X17900688Y4475077D02*
G01*
X17948774Y4426990D01*
X18005928Y4312683D01*
X17948774Y4198375D01*
X17900689Y4150290D01*
X17771904Y4085897D01*
X17437999Y4085897D01*
X17309213Y4150290D01*
X17261128Y4198375D01*
X17203974Y4312683D01*
X17261129Y4426991D01*
X17309215Y4475077D01*
X17437999Y4539468D01*
X17771904Y4539468D01*
X17900688Y4475077D01*
G37*
G36*
X24060786Y2634468D02*
G01*
X23825047Y2634468D01*
X23582174Y2715426D01*
X23429700Y2867899D01*
X23347376Y3032548D01*
X23244357Y3444625D01*
X23244357Y3729313D01*
X23347375Y4141389D01*
X23429700Y4306038D01*
X23582174Y4458511D01*
X23825047Y4539468D01*
X24060786Y4539468D01*
X24060786Y2634468D01*
G37*
G36*
X34341738Y2634468D02*
G01*
X34105999Y2634468D01*
X33863126Y2715426D01*
X33710652Y2867899D01*
X33628328Y3032548D01*
X33525309Y3444625D01*
X33525309Y3729313D01*
X33628327Y4141389D01*
X33710652Y4306038D01*
X33863126Y4458511D01*
X34105999Y4539468D01*
X34341738Y4539468D01*
X34341738Y2634468D01*
G37*
G36*
X36890212Y4475076D02*
G01*
X37033499Y4331790D01*
X37123642Y3971217D01*
X37123642Y3202720D01*
X37033499Y2842147D01*
X36890212Y2698861D01*
X36761428Y2634468D01*
X36427523Y2634468D01*
X36298739Y2698860D01*
X36155452Y2842147D01*
X36065309Y3202720D01*
X36065309Y3971217D01*
X36155452Y4331790D01*
X36298739Y4475077D01*
X36427523Y4539468D01*
X36761428Y4539468D01*
X36890212Y4475076D01*
G37*
G36*
X15473166Y3843992D02*
G01*
X14897999Y3843992D01*
X14769215Y3908384D01*
X14721128Y3956470D01*
X14656737Y4085253D01*
X14656737Y4298207D01*
X14721128Y4426991D01*
X14769215Y4475077D01*
X14897999Y4539468D01*
X15473166Y4539468D01*
X15473166Y3843992D01*
G37*
G36*
X10997928Y3843992D02*
G01*
X10422761Y3843992D01*
X10293977Y3908384D01*
X10245890Y3956470D01*
X10181499Y4085253D01*
X10181499Y4298207D01*
X10245890Y4426991D01*
X10293977Y4475077D01*
X10422761Y4539468D01*
X10997928Y4539468D01*
X10997928Y3843992D01*
G37*
G36*
X40903404Y1636611D02*
G01*
X9183642Y1636611D01*
X9183642Y4010301D01*
X9546499Y4010301D01*
X9549677Y3992274D01*
X9548581Y3974001D01*
X9559187Y3938342D01*
X9565647Y3901710D01*
X9574798Y3885860D01*
X9580018Y3868311D01*
X9700970Y3626407D01*
X9731284Y3585537D01*
X9760445Y3543891D01*
X9881397Y3422938D01*
X9923068Y3393760D01*
X9963914Y3363463D01*
X10205819Y3242511D01*
X10223367Y3237292D01*
X10239218Y3228140D01*
X10275849Y3221681D01*
X10311509Y3211074D01*
X10329781Y3212171D01*
X10347809Y3208992D01*
X10997928Y3208992D01*
X10997928Y2316968D01*
X11017076Y2208377D01*
X11072209Y2112883D01*
X11156678Y2042005D01*
X11260295Y2004292D01*
X11370561Y2004292D01*
X11474178Y2042005D01*
X11558647Y2112883D01*
X11613780Y2208377D01*
X11632928Y2316968D01*
X11632928Y4801835D01*
X11849418Y4801835D01*
X11887131Y4698218D01*
X11958009Y4613749D01*
X12053503Y4558616D01*
X12162094Y4539468D01*
X12570308Y4539468D01*
X12570308Y2316968D01*
X12589456Y2208377D01*
X12644589Y2112883D01*
X12729058Y2042005D01*
X12832675Y2004292D01*
X12942941Y2004292D01*
X13046558Y2042005D01*
X13131027Y2112883D01*
X13186160Y2208377D01*
X13205308Y2316968D01*
X13205308Y4010301D01*
X14021737Y4010301D01*
X14024915Y3992274D01*
X14023819Y3974001D01*
X14034425Y3938342D01*
X14040885Y3901710D01*
X14050036Y3885860D01*
X14055256Y3868311D01*
X14176208Y3626407D01*
X14206522Y3585537D01*
X14235683Y3543891D01*
X14356635Y3422938D01*
X14398306Y3393760D01*
X14439152Y3363463D01*
X14620688Y3272696D01*
X14079131Y2499042D01*
X14032545Y2399100D01*
X14022949Y2289252D01*
X14051503Y2182747D01*
X14114762Y2092431D01*
X14205096Y2029197D01*
X14311609Y2000672D01*
X14421455Y2010298D01*
X14521384Y2056913D01*
X14599343Y2134894D01*
X15351212Y3208992D01*
X15473166Y3208992D01*
X15473166Y2316968D01*
X15492314Y2208377D01*
X15547447Y2112883D01*
X15631916Y2042005D01*
X15735533Y2004292D01*
X15845799Y2004292D01*
X15949416Y2042005D01*
X16033885Y2112883D01*
X16089018Y2208377D01*
X16108166Y2316968D01*
X16108166Y2800778D01*
X16561737Y2800778D01*
X16564916Y2782747D01*
X16563820Y2764477D01*
X16574424Y2728825D01*
X16580885Y2692187D01*
X16590037Y2676334D01*
X16595257Y2658787D01*
X16716209Y2416882D01*
X16746517Y2376021D01*
X16775683Y2334368D01*
X16896635Y2213414D01*
X16938306Y2184236D01*
X16979152Y2153939D01*
X17221057Y2032987D01*
X17238605Y2027768D01*
X17254456Y2018616D01*
X17291087Y2012157D01*
X17326747Y2001550D01*
X17345019Y2002647D01*
X17363047Y1999468D01*
X17846856Y1999468D01*
X17864883Y2002647D01*
X17883156Y2001550D01*
X17918815Y2012157D01*
X17955447Y2018616D01*
X17971297Y2027768D01*
X17988846Y2032987D01*
X18230751Y2153939D01*
X18271621Y2184254D01*
X18313267Y2213414D01*
X18434220Y2334366D01*
X18463398Y2376038D01*
X18488773Y2410247D01*
X18981993Y2410247D01*
X18989183Y2383415D01*
X18991604Y2355745D01*
X19003342Y2330572D01*
X19010533Y2303738D01*
X19026466Y2280983D01*
X19038205Y2255810D01*
X19057845Y2236170D01*
X19073780Y2213413D01*
X19194733Y2092460D01*
X19217491Y2076525D01*
X19237128Y2056888D01*
X19249785Y2050986D01*
X19260488Y2042005D01*
X19273615Y2037228D01*
X19285058Y2029215D01*
X19311890Y2022026D01*
X19337063Y2010287D01*
X19350978Y2009070D01*
X19364105Y2004292D01*
X19378073Y2004292D01*
X19391568Y2000676D01*
X19419239Y2003098D01*
X19446910Y2000676D01*
X19460405Y2004292D01*
X19474371Y2004292D01*
X19487496Y2009070D01*
X19501415Y2010287D01*
X19526592Y2022028D01*
X19553419Y2029216D01*
X19564859Y2037227D01*
X19577988Y2042005D01*
X19588688Y2050984D01*
X19601350Y2056888D01*
X19620994Y2076533D01*
X19643744Y2092462D01*
X19764696Y2213414D01*
X19780625Y2236164D01*
X19800270Y2255808D01*
X19812012Y2280989D01*
X19827942Y2303739D01*
X19835130Y2330566D01*
X19846871Y2355743D01*
X19849292Y2383417D01*
X19856482Y2410248D01*
X19854060Y2437919D01*
X19856482Y2465590D01*
X19849292Y2492424D01*
X19846871Y2520095D01*
X19835132Y2545268D01*
X19827943Y2572100D01*
X19812008Y2594858D01*
X19800270Y2620030D01*
X19780633Y2639667D01*
X19764698Y2662425D01*
X19643745Y2783378D01*
X19620988Y2799313D01*
X19601348Y2818953D01*
X19588690Y2824856D01*
X19577988Y2833836D01*
X19564861Y2838614D01*
X19553420Y2846625D01*
X19526586Y2853816D01*
X19501413Y2865554D01*
X19487497Y2866772D01*
X19474371Y2871549D01*
X19460406Y2871549D01*
X19446911Y2875165D01*
X19419232Y2872744D01*
X19391566Y2875164D01*
X19378075Y2871549D01*
X19364105Y2871549D01*
X19350981Y2866773D01*
X19337064Y2865555D01*
X19311885Y2853814D01*
X19285056Y2846625D01*
X19273614Y2838614D01*
X19260488Y2833836D01*
X19249786Y2824857D01*
X19237129Y2818954D01*
X19217489Y2799315D01*
X19194731Y2783379D01*
X19073779Y2662426D01*
X19057845Y2639671D01*
X19038204Y2620029D01*
X19026464Y2594854D01*
X19010533Y2572101D01*
X19003344Y2545273D01*
X18991603Y2520094D01*
X18989181Y2492421D01*
X18981993Y2465592D01*
X18984414Y2437921D01*
X18981993Y2410247D01*
X18488773Y2410247D01*
X18493695Y2416883D01*
X18614647Y2658788D01*
X18619866Y2676337D01*
X18629018Y2692187D01*
X18635477Y2728819D01*
X18646084Y2764478D01*
X18644987Y2782751D01*
X18648166Y2800778D01*
X18648166Y3284587D01*
X18644987Y3302615D01*
X18646084Y3320887D01*
X18635477Y3356547D01*
X18629018Y3393178D01*
X18619866Y3409029D01*
X18614647Y3426577D01*
X18493695Y3668482D01*
X18463398Y3709328D01*
X18434220Y3750999D01*
X18416822Y3768397D01*
X18434220Y3785794D01*
X18463398Y3827466D01*
X18493695Y3868311D01*
X18614647Y4110216D01*
X18619866Y4127765D01*
X18621881Y4131254D01*
X20190309Y4131254D01*
X20199140Y4081167D01*
X20206602Y4030851D01*
X20327555Y3667994D01*
X20336272Y3651895D01*
X20341010Y3634216D01*
X20362344Y3603748D01*
X20380060Y3571031D01*
X20393757Y3558886D01*
X20404256Y3543891D01*
X21313678Y2634468D01*
X20507809Y2634468D01*
X20399218Y2615320D01*
X20303724Y2560187D01*
X20232846Y2475718D01*
X20195133Y2372101D01*
X20195133Y2261835D01*
X20232846Y2158218D01*
X20303724Y2073749D01*
X20399218Y2018616D01*
X20507809Y1999468D01*
X22080190Y1999468D01*
X22121034Y2006671D01*
X22162365Y2010286D01*
X22175027Y2016191D01*
X22188781Y2018616D01*
X22224705Y2039357D01*
X22262300Y2056888D01*
X22272175Y2066764D01*
X22284275Y2073749D01*
X22310941Y2105529D01*
X22340270Y2134857D01*
X22346173Y2147517D01*
X22355153Y2158218D01*
X22369341Y2197201D01*
X22386871Y2234793D01*
X22388088Y2248709D01*
X22392866Y2261835D01*
X22392866Y2303312D01*
X22396482Y2344640D01*
X22392866Y2358135D01*
X22392866Y2372101D01*
X22378678Y2411082D01*
X22367942Y2451149D01*
X22359931Y2462590D01*
X22355153Y2475718D01*
X22328488Y2507496D01*
X22304697Y2541474D01*
X21440631Y3405540D01*
X22609357Y3405540D01*
X22616103Y3367283D01*
X22618837Y3328535D01*
X22739789Y2844725D01*
X22753931Y2813016D01*
X22763829Y2779739D01*
X22884781Y2537834D01*
X22915094Y2496966D01*
X22944256Y2455319D01*
X23186160Y2213414D01*
X23201158Y2202912D01*
X23213302Y2189218D01*
X23246009Y2171507D01*
X23276485Y2150168D01*
X23294166Y2145431D01*
X23310265Y2136713D01*
X23673122Y2015761D01*
X23723431Y2008301D01*
X23773524Y1999468D01*
X24378286Y1999468D01*
X24405644Y2004292D01*
X24433419Y2004292D01*
X24459521Y2013793D01*
X24486877Y2018616D01*
X24510932Y2032505D01*
X24537036Y2042005D01*
X24558315Y2059861D01*
X24582371Y2073749D01*
X24600226Y2095028D01*
X24621505Y2112883D01*
X24635393Y2136939D01*
X24653249Y2158218D01*
X24662749Y2184322D01*
X24676638Y2208377D01*
X24681461Y2235733D01*
X24690962Y2261835D01*
X24690962Y2289611D01*
X24695786Y2316968D01*
X24695786Y2531202D01*
X25150565Y2531202D01*
X25179104Y2424693D01*
X25242350Y2334368D01*
X25363302Y2213414D01*
X25378300Y2202912D01*
X25390444Y2189218D01*
X25423151Y2171507D01*
X25453627Y2150168D01*
X25471309Y2145430D01*
X25487407Y2136713D01*
X25850265Y2015761D01*
X25900574Y2008301D01*
X25950667Y1999468D01*
X26192571Y1999468D01*
X26242663Y2008301D01*
X26292973Y2015761D01*
X26655830Y2136713D01*
X26671929Y2145431D01*
X26689609Y2150168D01*
X26720078Y2171503D01*
X26752794Y2189218D01*
X26764940Y2202916D01*
X26779934Y2213414D01*
X26828355Y2261835D01*
X27452276Y2261835D01*
X27489989Y2158218D01*
X27560867Y2073749D01*
X27656361Y2018616D01*
X27764952Y1999468D01*
X28974476Y1999468D01*
X29001834Y2004292D01*
X29029609Y2004292D01*
X29055711Y2013793D01*
X29083067Y2018616D01*
X29107122Y2032505D01*
X29133226Y2042005D01*
X29154505Y2059861D01*
X29178561Y2073749D01*
X29196416Y2095028D01*
X29217695Y2112883D01*
X29231583Y2136939D01*
X29249439Y2158218D01*
X29258939Y2184322D01*
X29272828Y2208377D01*
X29277651Y2235733D01*
X29287152Y2261835D01*
X29287152Y2289611D01*
X29291976Y2316968D01*
X29291976Y3229454D01*
X29871324Y3229454D01*
X29909037Y3125837D01*
X29979915Y3041368D01*
X30075409Y2986235D01*
X30184000Y2967087D01*
X32119238Y2967087D01*
X32227829Y2986235D01*
X32323323Y3041368D01*
X32394201Y3125837D01*
X32431914Y3229454D01*
X32431914Y3339720D01*
X32407958Y3405540D01*
X32890309Y3405540D01*
X32897055Y3367283D01*
X32899789Y3328535D01*
X33020741Y2844725D01*
X33034883Y2813016D01*
X33044781Y2779739D01*
X33165733Y2537834D01*
X33196046Y2496966D01*
X33225208Y2455319D01*
X33467112Y2213414D01*
X33482110Y2202912D01*
X33494254Y2189218D01*
X33526961Y2171507D01*
X33557437Y2150168D01*
X33575118Y2145431D01*
X33591217Y2136713D01*
X33954074Y2015761D01*
X34004383Y2008301D01*
X34054476Y1999468D01*
X34659238Y1999468D01*
X34686596Y2004292D01*
X34714371Y2004292D01*
X34740473Y2013793D01*
X34767829Y2018616D01*
X34791884Y2032505D01*
X34817988Y2042005D01*
X34839267Y2059861D01*
X34863323Y2073749D01*
X34881178Y2095028D01*
X34902457Y2112883D01*
X34916345Y2136939D01*
X34934201Y2158218D01*
X34943701Y2184322D01*
X34957590Y2208377D01*
X34962413Y2235733D01*
X34971914Y2261835D01*
X34971914Y2289611D01*
X34976738Y2316968D01*
X34976738Y3163635D01*
X35430309Y3163635D01*
X35437055Y3125378D01*
X35439789Y3086630D01*
X35560741Y2602820D01*
X35573134Y2575031D01*
X35581009Y2545644D01*
X35595418Y2525065D01*
X35605654Y2502115D01*
X35626805Y2480240D01*
X35644255Y2455319D01*
X35886159Y2213414D01*
X35927830Y2184236D01*
X35968676Y2153939D01*
X36210581Y2032987D01*
X36228129Y2027768D01*
X36243980Y2018616D01*
X36280611Y2012157D01*
X36316271Y2001550D01*
X36334543Y2002647D01*
X36352571Y1999468D01*
X36836380Y1999468D01*
X36854407Y2002647D01*
X36872680Y2001550D01*
X36908339Y2012157D01*
X36944971Y2018616D01*
X36960821Y2027768D01*
X36978370Y2032987D01*
X37220275Y2153939D01*
X37261145Y2184254D01*
X37302791Y2213414D01*
X37406345Y2316968D01*
X38212213Y2316968D01*
X38231361Y2208377D01*
X38286494Y2112883D01*
X38370963Y2042005D01*
X38474580Y2004292D01*
X38584846Y2004292D01*
X38688463Y2042005D01*
X38772932Y2112883D01*
X38828065Y2208377D01*
X38847213Y2316968D01*
X38847213Y3425817D01*
X39088667Y2908415D01*
X39104553Y2885742D01*
X39116246Y2860648D01*
X39135947Y2840935D01*
X39151940Y2818110D01*
X39174621Y2802238D01*
X39194193Y2782655D01*
X39219447Y2770870D01*
X39242284Y2754889D01*
X39269029Y2747732D01*
X39294114Y2736025D01*
X39321877Y2733588D01*
X39348802Y2726382D01*
X39376380Y2728804D01*
X39403959Y2726382D01*
X39430882Y2733588D01*
X39458646Y2736025D01*
X39483734Y2747733D01*
X39510476Y2754890D01*
X39533309Y2770868D01*
X39558567Y2782655D01*
X39578139Y2802240D01*
X39600820Y2818110D01*
X39616809Y2840932D01*
X39636515Y2860648D01*
X39648209Y2885747D01*
X39664093Y2908416D01*
X39905547Y3425818D01*
X39905547Y2316968D01*
X39924695Y2208377D01*
X39979828Y2112883D01*
X40064297Y2042005D01*
X40167914Y2004292D01*
X40278180Y2004292D01*
X40381797Y2042005D01*
X40466266Y2112883D01*
X40521399Y2208377D01*
X40540547Y2316968D01*
X40540547Y4856968D01*
X40533351Y4897772D01*
X40529753Y4939053D01*
X40523832Y4951761D01*
X40521399Y4965559D01*
X40500686Y5001435D01*
X40483182Y5039002D01*
X40473272Y5048918D01*
X40466266Y5061053D01*
X40434526Y5087686D01*
X40405234Y5116995D01*
X40392533Y5122922D01*
X40381797Y5131931D01*
X40342862Y5146102D01*
X40305313Y5163625D01*
X40291349Y5164851D01*
X40278180Y5169644D01*
X40236750Y5169644D01*
X40195469Y5173268D01*
X40181928Y5169644D01*
X40167914Y5169644D01*
X40128984Y5155476D01*
X40088951Y5144761D01*
X40077466Y5136725D01*
X40064297Y5131931D01*
X40032554Y5105296D01*
X39998607Y5081540D01*
X39990565Y5070063D01*
X39979828Y5061053D01*
X39959112Y5025173D01*
X39935334Y4991235D01*
X39376379Y3793476D01*
X38817426Y4991234D01*
X38793649Y5025169D01*
X38772932Y5061053D01*
X38762194Y5070063D01*
X38754153Y5081540D01*
X38720208Y5105294D01*
X38688463Y5131931D01*
X38675291Y5136726D01*
X38663809Y5144760D01*
X38623780Y5155474D01*
X38584846Y5169644D01*
X38570833Y5169644D01*
X38557292Y5173268D01*
X38516010Y5169644D01*
X38474580Y5169644D01*
X38461410Y5164851D01*
X38447447Y5163625D01*
X38409897Y5146102D01*
X38370963Y5131931D01*
X38360226Y5122922D01*
X38347526Y5116995D01*
X38318236Y5087688D01*
X38286494Y5061053D01*
X38279486Y5048916D01*
X38269579Y5039002D01*
X38252076Y5001440D01*
X38231361Y4965559D01*
X38228927Y4951760D01*
X38223007Y4939053D01*
X38219408Y4897772D01*
X38212213Y4856968D01*
X38212213Y2316968D01*
X37406345Y2316968D01*
X37544696Y2455318D01*
X37562150Y2480246D01*
X37583297Y2502116D01*
X37593530Y2525061D01*
X37607942Y2545643D01*
X37615816Y2575032D01*
X37628210Y2602820D01*
X37749162Y3086630D01*
X37751895Y3125378D01*
X37758642Y3163635D01*
X37758642Y4010301D01*
X37751895Y4048559D01*
X37749162Y4087306D01*
X37628210Y4571116D01*
X37615816Y4598905D01*
X37607942Y4628293D01*
X37593530Y4648876D01*
X37583297Y4671820D01*
X37562150Y4693691D01*
X37544696Y4718618D01*
X37302791Y4960522D01*
X37261145Y4989683D01*
X37220275Y5019997D01*
X36978370Y5140949D01*
X36960821Y5146169D01*
X36944971Y5155320D01*
X36908339Y5161780D01*
X36872680Y5172386D01*
X36854407Y5171290D01*
X36836380Y5174468D01*
X36352571Y5174468D01*
X36334543Y5171290D01*
X36316271Y5172386D01*
X36280611Y5161780D01*
X36243980Y5155320D01*
X36228129Y5146169D01*
X36210581Y5140949D01*
X35968676Y5019997D01*
X35927830Y4989701D01*
X35886159Y4960522D01*
X35644255Y4718617D01*
X35626805Y4693697D01*
X35605654Y4671821D01*
X35595418Y4648872D01*
X35581009Y4628292D01*
X35573134Y4598906D01*
X35560741Y4571116D01*
X35439789Y4087306D01*
X35437055Y4048559D01*
X35430309Y4010301D01*
X35430309Y3163635D01*
X34976738Y3163635D01*
X34976738Y4856968D01*
X34971914Y4884326D01*
X34971914Y4912101D01*
X34962413Y4938204D01*
X34957590Y4965559D01*
X34943701Y4989615D01*
X34934201Y5015718D01*
X34916345Y5036998D01*
X34902457Y5061053D01*
X34881178Y5078909D01*
X34863323Y5100187D01*
X34839267Y5114076D01*
X34817988Y5131931D01*
X34791884Y5141432D01*
X34767829Y5155320D01*
X34740473Y5160144D01*
X34714371Y5169644D01*
X34686596Y5169644D01*
X34659238Y5174468D01*
X34054476Y5174468D01*
X34004383Y5165636D01*
X33954074Y5158175D01*
X33591217Y5037223D01*
X33575118Y5028506D01*
X33557437Y5023768D01*
X33526961Y5002430D01*
X33494254Y4984718D01*
X33482110Y4971025D01*
X33467112Y4960522D01*
X33225208Y4718617D01*
X33196046Y4676971D01*
X33165733Y4636102D01*
X33044781Y4394197D01*
X33034883Y4360921D01*
X33020741Y4329211D01*
X32899789Y3845402D01*
X32897055Y3806655D01*
X32890309Y3768397D01*
X32890309Y3405540D01*
X32407958Y3405540D01*
X32394201Y3443337D01*
X32323323Y3527806D01*
X32227829Y3582939D01*
X32119238Y3602087D01*
X30184000Y3602087D01*
X30075409Y3582939D01*
X29979915Y3527806D01*
X29909037Y3443337D01*
X29871324Y3339720D01*
X29871324Y3229454D01*
X29291976Y3229454D01*
X29291976Y4856968D01*
X29272828Y4965559D01*
X29217695Y5061053D01*
X29133226Y5131931D01*
X29029609Y5169644D01*
X28919343Y5169644D01*
X28815726Y5131931D01*
X28731257Y5061053D01*
X28676124Y4965559D01*
X28656976Y4856968D01*
X28656976Y2634468D01*
X27764952Y2634468D01*
X27656361Y2615320D01*
X27560867Y2560187D01*
X27489989Y2475718D01*
X27452276Y2372101D01*
X27452276Y2261835D01*
X26828355Y2261835D01*
X27021839Y2455318D01*
X27051021Y2496996D01*
X27081313Y2537834D01*
X27202266Y2779739D01*
X27212164Y2813016D01*
X27226306Y2844725D01*
X27347258Y3328535D01*
X27349991Y3367283D01*
X27356738Y3405540D01*
X27356738Y3768397D01*
X27349991Y3806655D01*
X27347258Y3845402D01*
X27226306Y4329211D01*
X27212163Y4360921D01*
X27202266Y4394197D01*
X27081313Y4636102D01*
X27051021Y4676941D01*
X27021839Y4718618D01*
X26779934Y4960522D01*
X26764940Y4971021D01*
X26752794Y4984718D01*
X26720078Y5002434D01*
X26689609Y5023768D01*
X26671929Y5028506D01*
X26655830Y5037223D01*
X26292973Y5158175D01*
X26242663Y5165636D01*
X26192571Y5174468D01*
X25950667Y5174468D01*
X25900574Y5165636D01*
X25850265Y5158175D01*
X25487407Y5037223D01*
X25471309Y5028507D01*
X25453627Y5023768D01*
X25423151Y5002430D01*
X25390444Y4984718D01*
X25378300Y4971025D01*
X25363302Y4960522D01*
X25242350Y4839568D01*
X25179104Y4749243D01*
X25150565Y4642734D01*
X25160176Y4532887D01*
X25206778Y4432952D01*
X25284748Y4354982D01*
X25384683Y4308381D01*
X25494530Y4298771D01*
X25601039Y4327311D01*
X25691364Y4390558D01*
X25759316Y4458511D01*
X26002190Y4539468D01*
X26141048Y4539468D01*
X26383921Y4458511D01*
X26536394Y4306037D01*
X26618719Y4141386D01*
X26721738Y3729313D01*
X26721738Y3444625D01*
X26618719Y3032551D01*
X26536394Y2867900D01*
X26383921Y2715426D01*
X26141048Y2634468D01*
X26002190Y2634468D01*
X25759316Y2715426D01*
X25691364Y2783378D01*
X25601039Y2846625D01*
X25494530Y2875165D01*
X25384683Y2865555D01*
X25284748Y2818954D01*
X25206778Y2740984D01*
X25160176Y2641049D01*
X25150565Y2531202D01*
X24695786Y2531202D01*
X24695786Y4856968D01*
X24690962Y4884326D01*
X24690962Y4912101D01*
X24681461Y4938204D01*
X24676638Y4965559D01*
X24662749Y4989615D01*
X24653249Y5015718D01*
X24635393Y5036998D01*
X24621505Y5061053D01*
X24600226Y5078909D01*
X24582371Y5100187D01*
X24558315Y5114076D01*
X24537036Y5131931D01*
X24510932Y5141432D01*
X24486877Y5155320D01*
X24459521Y5160144D01*
X24433419Y5169644D01*
X24405644Y5169644D01*
X24378286Y5174468D01*
X23773524Y5174468D01*
X23723431Y5165636D01*
X23673122Y5158175D01*
X23310265Y5037223D01*
X23294166Y5028506D01*
X23276485Y5023768D01*
X23246009Y5002430D01*
X23213302Y4984718D01*
X23201158Y4971025D01*
X23186160Y4960522D01*
X22944256Y4718617D01*
X22915094Y4676971D01*
X22884781Y4636102D01*
X22763829Y4394197D01*
X22753931Y4360921D01*
X22739789Y4329211D01*
X22618837Y3845402D01*
X22616103Y3806655D01*
X22609357Y3768397D01*
X22609357Y3405540D01*
X21440631Y3405540D01*
X20906267Y3939904D01*
X20825309Y4182779D01*
X20825309Y4298208D01*
X20889701Y4426991D01*
X20937787Y4475077D01*
X21066571Y4539468D01*
X21521429Y4539468D01*
X21650212Y4475077D01*
X21734731Y4390557D01*
X21825056Y4327311D01*
X21931565Y4298771D01*
X22041412Y4308381D01*
X22141348Y4354982D01*
X22219318Y4432951D01*
X22265919Y4532886D01*
X22275530Y4642733D01*
X22246991Y4749243D01*
X22183746Y4839568D01*
X22062793Y4960521D01*
X22021142Y4989686D01*
X21980276Y5019997D01*
X21738371Y5140949D01*
X21720822Y5146169D01*
X21704972Y5155320D01*
X21668340Y5161780D01*
X21632681Y5172386D01*
X21614408Y5171290D01*
X21596381Y5174468D01*
X20991619Y5174468D01*
X20973591Y5171290D01*
X20955319Y5172386D01*
X20919659Y5161780D01*
X20883028Y5155320D01*
X20867177Y5146169D01*
X20849629Y5140949D01*
X20607724Y5019997D01*
X20566878Y4989701D01*
X20525207Y4960522D01*
X20404255Y4839568D01*
X20375080Y4797903D01*
X20344782Y4757054D01*
X20223829Y4515150D01*
X20218609Y4497604D01*
X20209457Y4481750D01*
X20202996Y4445113D01*
X20192392Y4409460D01*
X20193488Y4391190D01*
X20190309Y4373159D01*
X20190309Y4131254D01*
X18621881Y4131254D01*
X18629018Y4143615D01*
X18635477Y4180247D01*
X18646084Y4215906D01*
X18644987Y4234179D01*
X18648166Y4252206D01*
X18648166Y4373159D01*
X18644987Y4391187D01*
X18646084Y4409459D01*
X18635477Y4445119D01*
X18629018Y4481750D01*
X18619866Y4497601D01*
X18614647Y4515149D01*
X18493695Y4757053D01*
X18463392Y4797907D01*
X18434220Y4839570D01*
X18313267Y4960522D01*
X18271621Y4989683D01*
X18230751Y5019997D01*
X17988846Y5140949D01*
X17971297Y5146169D01*
X17955447Y5155320D01*
X17918815Y5161780D01*
X17883156Y5172386D01*
X17864883Y5171290D01*
X17846856Y5174468D01*
X17363047Y5174468D01*
X17345019Y5171290D01*
X17326747Y5172386D01*
X17291087Y5161780D01*
X17254456Y5155320D01*
X17238605Y5146169D01*
X17221057Y5140949D01*
X16979152Y5019997D01*
X16938306Y4989701D01*
X16896635Y4960522D01*
X16775683Y4839568D01*
X16746508Y4797903D01*
X16716210Y4757054D01*
X16595257Y4515150D01*
X16590037Y4497604D01*
X16580885Y4481750D01*
X16574424Y4445113D01*
X16563820Y4409460D01*
X16564916Y4391190D01*
X16561737Y4373159D01*
X16561737Y4252206D01*
X16564916Y4234175D01*
X16563820Y4215905D01*
X16574424Y4180253D01*
X16580885Y4143615D01*
X16590037Y4127762D01*
X16595257Y4110215D01*
X16716209Y3868310D01*
X16746522Y3827442D01*
X16775684Y3785795D01*
X16793082Y3768397D01*
X16775684Y3750998D01*
X16746522Y3709352D01*
X16716209Y3668483D01*
X16595257Y3426578D01*
X16590037Y3409032D01*
X16580885Y3393178D01*
X16574424Y3356541D01*
X16563820Y3320888D01*
X16564916Y3302619D01*
X16561737Y3284587D01*
X16561737Y2800778D01*
X16108166Y2800778D01*
X16108166Y4856968D01*
X16103342Y4884326D01*
X16103342Y4912101D01*
X16093841Y4938204D01*
X16089018Y4965559D01*
X16075129Y4989615D01*
X16065629Y5015718D01*
X16047773Y5036998D01*
X16033885Y5061053D01*
X16012606Y5078909D01*
X15994751Y5100187D01*
X15970695Y5114076D01*
X15949416Y5131931D01*
X15923312Y5141432D01*
X15899257Y5155320D01*
X15871901Y5160144D01*
X15845799Y5169644D01*
X15818024Y5169644D01*
X15790666Y5174468D01*
X14823047Y5174468D01*
X14805019Y5171290D01*
X14786747Y5172386D01*
X14751087Y5161780D01*
X14714456Y5155320D01*
X14698605Y5146169D01*
X14681057Y5140949D01*
X14439152Y5019997D01*
X14398306Y4989701D01*
X14356635Y4960522D01*
X14235683Y4839569D01*
X14206522Y4797924D01*
X14176208Y4757053D01*
X14055256Y4515149D01*
X14050036Y4497601D01*
X14040885Y4481750D01*
X14034425Y4445119D01*
X14023819Y4409459D01*
X14024915Y4391187D01*
X14021737Y4373159D01*
X14021737Y4010301D01*
X13205308Y4010301D01*
X13205308Y4539468D01*
X13613523Y4539468D01*
X13722114Y4558616D01*
X13817608Y4613749D01*
X13888486Y4698218D01*
X13926199Y4801835D01*
X13926199Y4912101D01*
X13888486Y5015718D01*
X13817608Y5100187D01*
X13722114Y5155320D01*
X13613523Y5174468D01*
X12162094Y5174468D01*
X12053503Y5155320D01*
X11958009Y5100187D01*
X11887131Y5015718D01*
X11849418Y4912101D01*
X11849418Y4801835D01*
X11632928Y4801835D01*
X11632928Y4856968D01*
X11628104Y4884326D01*
X11628104Y4912101D01*
X11618603Y4938204D01*
X11613780Y4965559D01*
X11599891Y4989615D01*
X11590391Y5015718D01*
X11572535Y5036998D01*
X11558647Y5061053D01*
X11537368Y5078909D01*
X11519513Y5100187D01*
X11495457Y5114076D01*
X11474178Y5131931D01*
X11448074Y5141432D01*
X11424019Y5155320D01*
X11396663Y5160144D01*
X11370561Y5169644D01*
X11342786Y5169644D01*
X11315428Y5174468D01*
X10347809Y5174468D01*
X10329781Y5171290D01*
X10311509Y5172386D01*
X10275849Y5161780D01*
X10239218Y5155320D01*
X10223367Y5146169D01*
X10205819Y5140949D01*
X9963914Y5019997D01*
X9923068Y4989701D01*
X9881397Y4960522D01*
X9760445Y4839569D01*
X9731284Y4797924D01*
X9700970Y4757053D01*
X9580018Y4515149D01*
X9574798Y4497601D01*
X9565647Y4481750D01*
X9559187Y4445119D01*
X9548581Y4409459D01*
X9549677Y4391187D01*
X9546499Y4373159D01*
X9546499Y4010301D01*
X9183642Y4010301D01*
X9183642Y5537325D01*
X40903404Y5537325D01*
X40903404Y1636611D01*
G37*
D11*
X45302932Y42177264D02*
X43609599Y39637264D01*
X43609599Y42177264D02*
X45302932Y39637264D01*
X41432456Y39637264D02*
X42641980Y39637264D01*
X42641980Y39637264D02*
X42641980Y42177264D01*
X25577218Y72151788D02*
X25577218Y70942264D01*
X26423885Y73482264D02*
X25577218Y72151788D01*
X25577218Y72151788D02*
X24730551Y73482264D01*
X23883885Y73482264D02*
X23883885Y71426074D01*
X23883885Y71426074D02*
X23762932Y71184169D01*
X23762932Y71184169D02*
X23641980Y71063216D01*
X23641980Y71063216D02*
X23400075Y70942264D01*
X23400075Y70942264D02*
X22916266Y70942264D01*
X22916266Y70942264D02*
X22674361Y71063216D01*
X22674361Y71063216D02*
X22553408Y71184169D01*
X22553408Y71184169D02*
X22432456Y71426074D01*
X22432456Y71426074D02*
X22432456Y73482264D01*
X26077218Y20546788D02*
X26077218Y19337264D01*
X26923885Y21877264D02*
X26077218Y20546788D01*
X26077218Y20546788D02*
X25230551Y21877264D01*
X24383885Y19337264D02*
X24383885Y21877264D01*
X24383885Y21877264D02*
X23779123Y21877264D01*
X23779123Y21877264D02*
X23416266Y21756312D01*
X23416266Y21756312D02*
X23174361Y21514407D01*
X23174361Y21514407D02*
X23053408Y21272502D01*
X23053408Y21272502D02*
X22932456Y20788693D01*
X22932456Y20788693D02*
X22932456Y20425836D01*
X22932456Y20425836D02*
X23053408Y19942026D01*
X23053408Y19942026D02*
X23174361Y19700121D01*
X23174361Y19700121D02*
X23416266Y19458216D01*
X23416266Y19458216D02*
X23779123Y19337264D01*
X23779123Y19337264D02*
X24383885Y19337264D01*
X8302932Y42177264D02*
X6609599Y39637264D01*
X6609599Y42177264D02*
X8302932Y39637264D01*
X4190551Y39637264D02*
X5037218Y40846788D01*
X5641980Y39637264D02*
X5641980Y42177264D01*
X5641980Y42177264D02*
X4674361Y42177264D01*
X4674361Y42177264D02*
X4432456Y42056312D01*
X4432456Y42056312D02*
X4311503Y41935359D01*
X4311503Y41935359D02*
X4190551Y41693455D01*
X4190551Y41693455D02*
X4190551Y41330597D01*
X4190551Y41330597D02*
X4311503Y41088693D01*
X4311503Y41088693D02*
X4432456Y40967740D01*
X4432456Y40967740D02*
X4674361Y40846788D01*
X4674361Y40846788D02*
X5641980Y40846788D01*
D12*
%TO.C,LCD1*%
X-500000Y77900000D02*
X-500000Y8700000D01*
X-500000Y77900000D02*
X50500000Y77900000D01*
X-500000Y8700000D02*
X50500000Y8700000D01*
X3400000Y74700000D02*
X3400000Y17100000D01*
X3400000Y74700000D02*
X46600000Y74700000D01*
X3400000Y17100000D02*
X46600000Y17100000D01*
X46600000Y74700000D02*
X46600000Y17100000D01*
X50500000Y77900000D02*
X50500000Y8700000D01*
D13*
%TO.C,Logo_Olimex_2*%
X32851000Y80573400D02*
X32266800Y80001900D01*
X32851000Y82541900D02*
X32851000Y82300600D01*
X32851000Y82592700D02*
X32343000Y83100700D01*
X32838300Y80560700D02*
X32838300Y81322700D01*
X32279500Y80001900D02*
X31238100Y80001900D01*
X31250800Y83176900D02*
X30615800Y82567300D01*
X31250800Y83189600D02*
X32254100Y83189600D01*
X30641200Y80611500D02*
X31200000Y80027300D01*
X30628500Y82580000D02*
X30628500Y80649600D01*
D14*
X29777600Y83532500D02*
X29777600Y80382900D01*
X29764900Y83532500D02*
X29777600Y83532500D01*
X29752200Y83532500D02*
X29764900Y83532500D01*
X29637900Y83443600D02*
X29701400Y83456300D01*
D13*
X29472800Y80459100D02*
X29472800Y83189600D01*
D14*
X29472800Y83532500D02*
X29752200Y83532500D01*
X29460100Y83532500D02*
X29155300Y83532500D01*
X29333100Y83456300D02*
X29218800Y83456300D01*
X29155300Y83532500D02*
X29155300Y80497200D01*
D13*
X29015600Y80014600D02*
X29472800Y80471800D01*
X28029800Y80014600D02*
X29015600Y80014600D01*
D14*
X27834500Y80827400D02*
X27224900Y80827400D01*
X27834500Y82846700D02*
X27834500Y80827400D01*
X27694800Y80890900D02*
X27758300Y80890900D01*
D13*
X27517000Y82732400D02*
X27517000Y81132200D01*
D14*
X27351900Y80890900D02*
X27263000Y80890900D01*
X27224900Y80827400D02*
X27199500Y80827400D01*
X27199500Y80827400D02*
X27199500Y82846700D01*
X26615300Y80484500D02*
X26615300Y83469000D01*
X26615300Y83481700D02*
X25370700Y83481700D01*
X26462900Y83418200D02*
X26539100Y83418200D01*
D13*
X26297800Y80573400D02*
X26297800Y83164200D01*
X26297800Y83164200D02*
X25459600Y83164200D01*
X25459600Y83164200D02*
X24850000Y82656200D01*
D14*
X25370700Y83481700D02*
X24786500Y82999100D01*
D13*
X24748400Y81868800D02*
X24748400Y82580000D01*
X24672200Y82656200D02*
X24037200Y83164200D01*
D14*
X24126100Y83481700D02*
X24748400Y82986400D01*
X24100700Y83481700D02*
X24126100Y83481700D01*
D13*
X24037200Y83164200D02*
X23148200Y83164200D01*
X23135500Y83176900D02*
X23135500Y80573400D01*
D14*
X22957700Y83405500D02*
X22856100Y83405500D01*
X22805300Y80459100D02*
X22805300Y83469000D01*
X22805300Y83469000D02*
X22805300Y83481700D01*
X22805300Y83481700D02*
X24100700Y83481700D01*
D13*
X21878200Y80446400D02*
X21446400Y80014600D01*
X21878200Y82681600D02*
X21878200Y80446400D01*
X21878200Y82707000D02*
X21395600Y83215000D01*
X21446400Y80014600D02*
X20125600Y80014600D01*
D14*
X21433700Y83519800D02*
X20062100Y83519800D01*
D13*
X21347500Y83189600D02*
X20125600Y83189600D01*
X20659000Y81614800D02*
X21878200Y81614800D01*
X20125600Y80014600D02*
X18982600Y81132200D01*
X20125600Y83189600D02*
X19033400Y82122800D01*
D14*
X20062100Y83519800D02*
X20011300Y83519800D01*
X20011300Y83519800D02*
X18754000Y82275200D01*
D15*
X19008000Y82008500D02*
X18449200Y82008500D01*
X18982600Y81233800D02*
X18449200Y81233800D01*
D13*
X17636400Y80319400D02*
X18474600Y81132200D01*
X17585600Y82999100D02*
X18449200Y82105400D01*
D16*
X33175747Y81818000D02*
G75*
G03*
X33175747Y81818000I-337447J0D01*
G01*
X27883324Y80040000D02*
G75*
G03*
X27883324Y80040000I-366324J0D01*
G01*
X27877818Y83265800D02*
G75*
G03*
X27877818Y83265800I-373518J0D01*
G01*
X26644759Y80065400D02*
G75*
G03*
X26644759Y80065400I-359659J0D01*
G01*
X25119318Y81335400D02*
G75*
G03*
X25119318Y81335400I-370918J0D01*
G01*
X23498729Y80052700D02*
G75*
G03*
X23498729Y80052700I-363229J0D01*
G01*
X20510659Y81614800D02*
G75*
G03*
X20510659Y81614800I-359659J0D01*
G01*
X17635666Y79963800D02*
G75*
G03*
X17635666Y79963800I-329466J0D01*
G01*
X17576735Y83354700D02*
G75*
G03*
X17576735Y83354700I-359435J0D01*
G01*
%TD*%
M02*
