%TF.GenerationSoftware,KiCad,Pcbnew,7.0.9-7.0.9~ubuntu22.04.1*%
%TF.CreationDate,2025-03-11T13:54:09+02:00*%
%TF.ProjectId,MOD-LCD2.8RTP_Rev_D,4d4f442d-4c43-4443-922e-385254505f52,D*%
%TF.SameCoordinates,PX2aea540PY8677d40*%
%TF.FileFunction,Copper,L2,Bot*%
%TF.FilePolarity,Positive*%
%FSLAX46Y46*%
G04 Gerber Fmt 4.6, Leading zero omitted, Abs format (unit mm)*
G04 Created by KiCad (PCBNEW 7.0.9-7.0.9~ubuntu22.04.1) date 2025-03-11 13:54:09*
%MOMM*%
%LPD*%
G01*
G04 APERTURE LIST*
%TA.AperFunction,ViaPad*%
%ADD10C,0.800000*%
%TD*%
%TA.AperFunction,ViaPad*%
%ADD11C,1.000000*%
%TD*%
%TA.AperFunction,Conductor*%
%ADD12C,1.016000*%
%TD*%
%TA.AperFunction,Conductor*%
%ADD13C,0.508000*%
%TD*%
%TA.AperFunction,Conductor*%
%ADD14C,0.254000*%
%TD*%
G04 APERTURE END LIST*
D10*
%TO.N,GND*%
X16976000Y74452000D03*
X47583000Y10698000D03*
X974000Y75341000D03*
X974000Y65308000D03*
X974000Y58958000D03*
X974000Y53370000D03*
X974000Y47147000D03*
X13928000Y73436000D03*
X7070000Y77500000D03*
X32597000Y72039000D03*
X21548000Y81056000D03*
X12150000Y81564000D03*
X7578000Y84866000D03*
X17484000Y84866000D03*
X24977000Y84866000D03*
X31073000Y80802000D03*
X36280000Y84866000D03*
X40852000Y80675000D03*
X36153000Y76611000D03*
X47964000Y76738000D03*
X42503000Y71023000D03*
X48599000Y66070000D03*
X36407000Y66070000D03*
X42630000Y59974000D03*
X48599000Y52608000D03*
X36661000Y52735000D03*
X25104000Y52735000D03*
X18627000Y47147000D03*
X30311000Y47147000D03*
X42503000Y47147000D03*
X14436000Y39654000D03*
X23834000Y40416000D03*
X36788000Y40416000D03*
X48726000Y40416000D03*
X42249000Y31653000D03*
X30438000Y32034000D03*
X17738000Y32288000D03*
X11769000Y25430000D03*
X24342000Y25684000D03*
X36915000Y25557000D03*
X48726000Y25303000D03*
X48599000Y14127000D03*
X37423000Y14254000D03*
X24596000Y13873000D03*
X12277000Y13492000D03*
X42249000Y18699000D03*
X30438000Y18826000D03*
X18246000Y18826000D03*
X6562000Y18826000D03*
X2117000Y10698000D03*
X1101000Y14889000D03*
X1101000Y22001000D03*
X1101000Y27716000D03*
X1101000Y35209000D03*
X1101000Y43845000D03*
X2625000Y40162000D03*
X7578000Y39908000D03*
X4911000Y37114000D03*
D11*
X4530000Y29240000D03*
X8340000Y57180000D03*
X15833000Y51211000D03*
D10*
X3133000Y70642000D03*
X7324000Y36860000D03*
D11*
X16468000Y64038000D03*
X29295000Y56291000D03*
X16976000Y69626000D03*
X16595000Y57307000D03*
X13801000Y42448000D03*
X8340000Y50322000D03*
D10*
X5800000Y70642000D03*
D11*
X4530000Y53725600D03*
X26628000Y63403000D03*
X18627000Y77500000D03*
D10*
X11007000Y36860000D03*
D11*
X18119000Y69626000D03*
D10*
X12023000Y36860000D03*
D11*
X29422000Y65308000D03*
X8594000Y64927000D03*
X26628000Y64673000D03*
X8340000Y43845000D03*
D10*
X20786000Y54894000D03*
X4403000Y43718000D03*
D11*
X5165000Y55656000D03*
X5546000Y45496000D03*
X30184000Y60355000D03*
X5038000Y61752000D03*
X16468000Y65181000D03*
D10*
X8340000Y36860000D03*
D11*
%TO.N,+3.3V*%
X31073000Y65308000D03*
X25358000Y65689000D03*
X10372000Y50449000D03*
X11134000Y66578000D03*
X11134000Y65435000D03*
X6308000Y34447000D03*
X9737000Y41178000D03*
D10*
%TO.N,/YU*%
X21675000Y56926000D03*
X13928000Y54132000D03*
X15833000Y47528000D03*
%TO.N,/XL*%
X13420000Y36733000D03*
X14055000Y48925000D03*
X13039000Y55021000D03*
X15833000Y59339000D03*
%TO.N,/YD*%
X14817000Y58450000D03*
X12118250Y55878250D03*
X14055000Y47147000D03*
%TO.N,/XR*%
X15833000Y48925000D03*
X14817000Y53243000D03*
X20786000Y56037000D03*
%TO.N,/RXD*%
X3641000Y60609000D03*
X21294000Y70515000D03*
X4530000Y47274000D03*
%TO.N,/SCL*%
X4530000Y65054000D03*
X23834000Y69626000D03*
X6308000Y52354000D03*
%TO.N,/SDA*%
X13420000Y76484000D03*
X3387000Y50703000D03*
%TO.N,/I2C-IRQ*%
X1736000Y73563000D03*
X2371000Y44480000D03*
X1736000Y54640000D03*
%TO.N,Net-(U1-SCK{slash}SCL{slash}TX)*%
X7070000Y42194000D03*
X6435000Y65054000D03*
%TD*%
D12*
%TO.N,+3.3V*%
X11134000Y65435000D02*
X11134000Y66578000D01*
D13*
X31073000Y65308000D02*
X30057000Y66324000D01*
X30057000Y66324000D02*
X25993000Y66324000D01*
X25993000Y66324000D02*
X25358000Y65689000D01*
D14*
%TO.N,/I2C-IRQ*%
X1736000Y73563000D02*
X1736000Y54640000D01*
%TO.N,/RXD*%
X4530000Y47274000D02*
X4530000Y50957000D01*
X4530000Y50957000D02*
X3514000Y51973000D01*
X3514000Y51973000D02*
X3514000Y60482000D01*
X3514000Y60482000D02*
X3641000Y60609000D01*
%TO.N,/I2C-IRQ*%
X2371000Y44480000D02*
X1736000Y45115000D01*
X1736000Y45115000D02*
X1736000Y54640000D01*
%TO.N,/SDA*%
X3387000Y50703000D02*
X2625000Y51465000D01*
X2625000Y51465000D02*
X2625000Y65689000D01*
X2625000Y65689000D02*
X13420000Y76484000D01*
D12*
%TO.N,+3.3V*%
X10372000Y50449000D02*
X10245000Y50576000D01*
X10245000Y50576000D02*
X10245000Y64546000D01*
X10245000Y64546000D02*
X11134000Y65435000D01*
D14*
%TO.N,/XL*%
X13420000Y36733000D02*
X12531000Y37622000D01*
X12531000Y37622000D02*
X12531000Y43972000D01*
X12531000Y43972000D02*
X14944000Y46385000D01*
X14944000Y46385000D02*
X14944000Y47528000D01*
X14944000Y47528000D02*
X14055000Y48417000D01*
X14055000Y48417000D02*
X14055000Y48925000D01*
%TO.N,/YD*%
X12118250Y55878250D02*
X12150000Y55846500D01*
X12150000Y55846500D02*
X12150000Y49433000D01*
X12150000Y49433000D02*
X13166000Y48417000D01*
X13166000Y48417000D02*
X13166000Y48036000D01*
X13166000Y48036000D02*
X14055000Y47147000D01*
%TO.N,/XL*%
X14055000Y48925000D02*
X13039000Y49941000D01*
X13039000Y49941000D02*
X13039000Y55021000D01*
%TO.N,/XR*%
X14817000Y53243000D02*
X14817000Y50703000D01*
X14817000Y50703000D02*
X15833000Y49687000D01*
X15833000Y49687000D02*
X15833000Y48925000D01*
%TO.N,/YD*%
X12245250Y55878250D02*
X14817000Y58450000D01*
X12118250Y55878250D02*
X12245250Y55878250D01*
%TO.N,/YU*%
X13928000Y54132000D02*
X14055000Y54132000D01*
X14944000Y48512250D02*
X15833000Y47623250D01*
X15833000Y47623250D02*
X15833000Y47528000D01*
X14055000Y54132000D02*
X16087000Y56164000D01*
X13928000Y54132000D02*
X13928000Y50322000D01*
X14944000Y49306000D02*
X14944000Y48512250D01*
X16087000Y56164000D02*
X17230000Y56164000D01*
X17230000Y56164000D02*
X17992000Y56926000D01*
X17992000Y56926000D02*
X21675000Y56926000D01*
X13928000Y50322000D02*
X14944000Y49306000D01*
D12*
%TO.N,+3.3V*%
X9737000Y36225000D02*
X9737000Y49814000D01*
X6308000Y34447000D02*
X7959000Y34447000D01*
X7959000Y34447000D02*
X9737000Y36225000D01*
X9737000Y49814000D02*
X10372000Y50449000D01*
%TO.N,GND*%
X17484000Y63022000D02*
X17103000Y63403000D01*
X30184000Y60355000D02*
X29676000Y60355000D01*
D13*
X720000Y76103000D02*
X720000Y30256000D01*
D12*
X17103000Y63403000D02*
X16468000Y64038000D01*
D13*
X5165000Y55656000D02*
X5038000Y55783000D01*
D12*
X16468000Y65181000D02*
X16468000Y69118000D01*
D13*
X5038000Y55783000D02*
X5038000Y61752000D01*
D12*
X8340000Y36860000D02*
X8340000Y64673000D01*
X26628000Y63403000D02*
X17103000Y63403000D01*
X30184000Y60355000D02*
X30184000Y57180000D01*
X30184000Y57180000D02*
X29295000Y56291000D01*
D13*
X18627000Y77500000D02*
X2117000Y77500000D01*
D12*
X13801000Y42448000D02*
X15452000Y42448000D01*
D13*
X4530000Y53725600D02*
X4530000Y55021000D01*
X2117000Y77500000D02*
X720000Y76103000D01*
D12*
X16595000Y57307000D02*
X17484000Y58196000D01*
X17484000Y58196000D02*
X17484000Y63022000D01*
D13*
X4530000Y55021000D02*
X5165000Y55656000D01*
D12*
X15452000Y42448000D02*
X29295000Y56291000D01*
X29676000Y60355000D02*
X26628000Y63403000D01*
X16468000Y69118000D02*
X16976000Y69626000D01*
D13*
X720000Y30256000D02*
X3387000Y27589000D01*
D12*
X8340000Y64673000D02*
X8594000Y64927000D01*
D14*
%TO.N,/XL*%
X13039000Y55148000D02*
X13039000Y55021000D01*
X15833000Y59339000D02*
X15833000Y57942000D01*
X15833000Y57942000D02*
X13039000Y55148000D01*
%TO.N,/XR*%
X14817000Y53243000D02*
X14817000Y53370000D01*
X17738000Y55275000D02*
X18500000Y56037000D01*
X14817000Y53370000D02*
X16722000Y55275000D01*
X18500000Y56037000D02*
X20786000Y56037000D01*
X16722000Y55275000D02*
X17738000Y55275000D01*
%TO.N,/RXD*%
X19135000Y71658000D02*
X20278000Y70515000D01*
X20278000Y70515000D02*
X21294000Y70515000D01*
X9737000Y71658000D02*
X19135000Y71658000D01*
X3514000Y65435000D02*
X9737000Y71658000D01*
X3641000Y60609000D02*
X3514000Y60736000D01*
X3514000Y60736000D02*
X3514000Y65435000D01*
%TO.N,/SCL*%
X20024000Y69626000D02*
X18754000Y70896000D01*
X10245000Y70896000D02*
X4530000Y65181000D01*
X4530000Y65181000D02*
X4530000Y65054000D01*
X18754000Y70896000D02*
X10245000Y70896000D01*
X23834000Y69626000D02*
X20024000Y69626000D01*
X6308000Y52354000D02*
X6308000Y63276000D01*
X6308000Y63276000D02*
X4530000Y65054000D01*
%TO.N,Net-(U1-SCK{slash}SCL{slash}TX)*%
X7070000Y42194000D02*
X7197000Y42321000D01*
X7197000Y42321000D02*
X7197000Y64292000D01*
X7197000Y64292000D02*
X6435000Y65054000D01*
%TD*%
%TA.AperFunction,Conductor*%
%TO.N,GND*%
G36*
X45419097Y85674698D02*
G01*
X45465590Y85621042D01*
X45475694Y85550768D01*
X45446200Y85486188D01*
X45386474Y85447804D01*
X45371019Y85444305D01*
X45356141Y85441908D01*
X45259000Y85426257D01*
X44899012Y85328084D01*
X44899009Y85328083D01*
X44551514Y85192209D01*
X44551507Y85192207D01*
X44551497Y85192202D01*
X44551488Y85192198D01*
X44551485Y85192196D01*
X44220399Y85020155D01*
X44220396Y85020153D01*
X43909452Y84813881D01*
X43909445Y84813876D01*
X43622202Y84575732D01*
X43361883Y84308388D01*
X43131464Y84014900D01*
X42933543Y83698575D01*
X42770370Y83363014D01*
X42770369Y83363013D01*
X42643788Y83012008D01*
X42643786Y83012002D01*
X42555232Y82649532D01*
X42555228Y82649509D01*
X42505706Y82279696D01*
X42505705Y82279687D01*
X42495772Y81906690D01*
X42495772Y81906684D01*
X42525542Y81534741D01*
X42594683Y81168057D01*
X42594686Y81168048D01*
X42702399Y80810820D01*
X42702403Y80810811D01*
X42847484Y80467044D01*
X42847492Y80467027D01*
X42983092Y80222228D01*
X43028293Y80140626D01*
X43137536Y79985101D01*
X43242772Y79835282D01*
X43242777Y79835276D01*
X43488482Y79554474D01*
X43488484Y79554472D01*
X43762655Y79301371D01*
X44062171Y79078849D01*
X44062172Y79078847D01*
X44062176Y79078845D01*
X44062177Y79078844D01*
X44383655Y78889415D01*
X44723446Y78735230D01*
X45077702Y78618036D01*
X45442408Y78539161D01*
X45442410Y78539161D01*
X45442414Y78539160D01*
X45813418Y78499500D01*
X45813425Y78499500D01*
X45813431Y78499499D01*
X45813436Y78499499D01*
X46093219Y78499499D01*
X46372596Y78514389D01*
X46372601Y78514390D01*
X46372609Y78514390D01*
X46740995Y78573743D01*
X47100986Y78671916D01*
X47448503Y78807798D01*
X47779607Y78979849D01*
X48090547Y79186119D01*
X48377801Y79424272D01*
X48638114Y79691609D01*
X48868535Y79985101D01*
X49066455Y80301422D01*
X49229631Y80636989D01*
X49356213Y80987999D01*
X49444769Y81350476D01*
X49444771Y81350492D01*
X49444883Y81351082D01*
X49444947Y81351210D01*
X49445565Y81353735D01*
X49446162Y81353589D01*
X49477164Y81414315D01*
X49538507Y81450058D01*
X49609436Y81446962D01*
X49667432Y81406011D01*
X49694081Y81340206D01*
X49694700Y81327729D01*
X49694700Y78276728D01*
X49674698Y78208607D01*
X49621042Y78162114D01*
X49607641Y78156897D01*
X49529753Y78131589D01*
X49529750Y78131588D01*
X49529747Y78131586D01*
X49364949Y78036440D01*
X49364939Y78036433D01*
X49223526Y77909104D01*
X49111667Y77755144D01*
X49111667Y77755143D01*
X49034266Y77581297D01*
X48994700Y77395152D01*
X48994700Y77395151D01*
X48994700Y77204849D01*
X49034266Y77018706D01*
X49062569Y76955135D01*
X49111670Y76844853D01*
X49223526Y76690897D01*
X49364939Y76563568D01*
X49364945Y76563564D01*
X49364947Y76563562D01*
X49529753Y76468411D01*
X49607638Y76443105D01*
X49666241Y76403034D01*
X49693879Y76337638D01*
X49694700Y76323273D01*
X49694700Y10276728D01*
X49674698Y10208607D01*
X49621042Y10162114D01*
X49607641Y10156897D01*
X49529753Y10131589D01*
X49529750Y10131588D01*
X49529747Y10131586D01*
X49364949Y10036440D01*
X49364939Y10036433D01*
X49223526Y9909104D01*
X49111667Y9755144D01*
X49111667Y9755143D01*
X49034266Y9581297D01*
X48994700Y9395152D01*
X48994700Y9204849D01*
X49034266Y9018706D01*
X49111670Y8844853D01*
X49223526Y8690897D01*
X49364939Y8563568D01*
X49364945Y8563564D01*
X49364947Y8563562D01*
X49529753Y8468411D01*
X49607638Y8443105D01*
X49666241Y8403034D01*
X49693879Y8337638D01*
X49694700Y8323273D01*
X49694700Y4645457D01*
X49674698Y4577336D01*
X49621042Y4530843D01*
X49550768Y4520739D01*
X49486188Y4550233D01*
X49447804Y4609959D01*
X49444882Y4622110D01*
X49405316Y4831944D01*
X49405313Y4831953D01*
X49297600Y5189181D01*
X49297596Y5189190D01*
X49152515Y5532957D01*
X49152511Y5532967D01*
X48971707Y5859374D01*
X48757232Y6164713D01*
X48757227Y6164719D01*
X48757222Y6164725D01*
X48511517Y6445527D01*
X48511515Y6445529D01*
X48237344Y6698630D01*
X48061813Y6829039D01*
X47937827Y6921153D01*
X47937827Y6921154D01*
X47769813Y7020155D01*
X47616345Y7110585D01*
X47276554Y7264770D01*
X46922298Y7381964D01*
X46922297Y7381965D01*
X46922288Y7381967D01*
X46742040Y7420949D01*
X46679686Y7454899D01*
X46645586Y7517170D01*
X46650565Y7587992D01*
X46672860Y7625929D01*
X46698836Y7656341D01*
X46830466Y7871141D01*
X46926873Y8103889D01*
X46985683Y8348852D01*
X47005449Y8600000D01*
X46985683Y8851148D01*
X46926873Y9096111D01*
X46830466Y9328859D01*
X46698836Y9543659D01*
X46666692Y9581295D01*
X46535224Y9735225D01*
X46343662Y9898834D01*
X46343660Y9898835D01*
X46343659Y9898836D01*
X46128859Y10030466D01*
X46114454Y10036433D01*
X45896109Y10126874D01*
X45653226Y10185184D01*
X45651148Y10185683D01*
X45604081Y10189388D01*
X45462885Y10200500D01*
X45462882Y10200500D01*
X4537118Y10200500D01*
X4537115Y10200500D01*
X4348852Y10185683D01*
X4103890Y10126874D01*
X3871142Y10030467D01*
X3656339Y9898835D01*
X3656337Y9898834D01*
X3464775Y9735225D01*
X3301166Y9543663D01*
X3301165Y9543661D01*
X3169533Y9328858D01*
X3073126Y9096110D01*
X3014317Y8851148D01*
X2994551Y8600000D01*
X3014317Y8348853D01*
X3073126Y8103891D01*
X3073127Y8103889D01*
X3169534Y7871141D01*
X3301163Y7656342D01*
X3301165Y7656340D01*
X3301166Y7656338D01*
X3323527Y7630157D01*
X3352558Y7565368D01*
X3341953Y7495168D01*
X3295078Y7441845D01*
X3260867Y7426766D01*
X2899012Y7328084D01*
X2899009Y7328083D01*
X2551514Y7192209D01*
X2551507Y7192207D01*
X2551497Y7192202D01*
X2551488Y7192198D01*
X2551485Y7192196D01*
X2220399Y7020155D01*
X2220396Y7020153D01*
X1909452Y6813881D01*
X1909445Y6813876D01*
X1622202Y6575732D01*
X1361883Y6308388D01*
X1131464Y6014900D01*
X933543Y5698575D01*
X770370Y5363014D01*
X770369Y5363013D01*
X643788Y5012008D01*
X643786Y5012002D01*
X555230Y4649522D01*
X555116Y4648914D01*
X555051Y4648787D01*
X554435Y4646265D01*
X553837Y4646411D01*
X522832Y4585682D01*
X461487Y4549942D01*
X390558Y4553041D01*
X332565Y4593995D01*
X305919Y4659801D01*
X305300Y4672272D01*
X305300Y8323273D01*
X325302Y8391394D01*
X378958Y8437887D01*
X392347Y8443101D01*
X470247Y8468411D01*
X635053Y8563562D01*
X675522Y8600000D01*
X776473Y8690897D01*
X776473Y8690898D01*
X776475Y8690899D01*
X888332Y8844856D01*
X965734Y9018706D01*
X1005300Y9204849D01*
X1005300Y9395151D01*
X965734Y9581294D01*
X888332Y9755143D01*
X888330Y9755146D01*
X888329Y9755148D01*
X776473Y9909104D01*
X635060Y10036433D01*
X635050Y10036440D01*
X478415Y10126873D01*
X470247Y10131589D01*
X392362Y10156896D01*
X333758Y10196969D01*
X306121Y10262366D01*
X305300Y10276728D01*
X305300Y34447000D01*
X5489554Y34447000D01*
X5510074Y34264879D01*
X5510075Y34264877D01*
X5570605Y34091892D01*
X5668113Y33936707D01*
X5668114Y33936705D01*
X5797704Y33807115D01*
X5797706Y33807114D01*
X5797707Y33807113D01*
X5952890Y33709606D01*
X6125879Y33649074D01*
X6262328Y33633700D01*
X8050634Y33633700D01*
X8050637Y33633700D01*
X8091995Y33643140D01*
X8098956Y33644324D01*
X8141121Y33649074D01*
X8181169Y33663089D01*
X8187955Y33665044D01*
X8229316Y33674483D01*
X8267547Y33692895D01*
X8274051Y33695590D01*
X8314110Y33709606D01*
X8350041Y33732184D01*
X8356194Y33735585D01*
X8394440Y33754002D01*
X8427618Y33780463D01*
X8433351Y33784531D01*
X8469293Y33807113D01*
X8598887Y33936707D01*
X10344385Y35682205D01*
X10376887Y35714707D01*
X10399469Y35750649D01*
X10403537Y35756382D01*
X10429998Y35789560D01*
X10448408Y35827792D01*
X10451819Y35833963D01*
X10474394Y35869890D01*
X10488411Y35909952D01*
X10491099Y35916441D01*
X10509517Y35954685D01*
X10518957Y35996046D01*
X10520906Y36002817D01*
X10534926Y36042879D01*
X10539675Y36085039D01*
X10540860Y36092007D01*
X10550300Y36133364D01*
X10550300Y49424930D01*
X10570302Y49493051D01*
X10587199Y49514020D01*
X10912307Y49839128D01*
X10917547Y49843810D01*
X10950729Y49870271D01*
X11064998Y50013560D01*
X11144517Y50178684D01*
X11185300Y50357363D01*
X11185300Y50540637D01*
X11144517Y50719316D01*
X11111180Y50788542D01*
X11070778Y50872439D01*
X11058300Y50927108D01*
X11058300Y55878247D01*
X11407770Y55878247D01*
X11428414Y55708224D01*
X11428414Y55708222D01*
X11428415Y55708221D01*
X11455722Y55636218D01*
X11458701Y55628362D01*
X11463858Y55611153D01*
X11468097Y55592176D01*
X11707528Y55033006D01*
X11717700Y54983410D01*
X11717700Y49460819D01*
X11717304Y49453760D01*
X11713123Y49416654D01*
X11723733Y49360573D01*
X11732240Y49304137D01*
X11734659Y49296296D01*
X11737348Y49288612D01*
X11764019Y49238147D01*
X11788781Y49186727D01*
X11793397Y49179958D01*
X11798242Y49173394D01*
X11798243Y49173392D01*
X11838607Y49133028D01*
X11873865Y49095029D01*
X11877420Y49091198D01*
X11884806Y49085308D01*
X11884236Y49084594D01*
X11896291Y49075344D01*
X12696795Y48274840D01*
X12730821Y48212528D01*
X12733700Y48185745D01*
X12733700Y48063819D01*
X12733304Y48056760D01*
X12729123Y48019654D01*
X12739733Y47963573D01*
X12748240Y47907137D01*
X12750659Y47899296D01*
X12753348Y47891612D01*
X12780019Y47841147D01*
X12804781Y47789727D01*
X12809397Y47782958D01*
X12814242Y47776394D01*
X12814243Y47776392D01*
X12854607Y47736028D01*
X12889863Y47698032D01*
X12893420Y47694198D01*
X12900806Y47688308D01*
X12900236Y47687594D01*
X12912291Y47678344D01*
X13118265Y47472370D01*
X13143873Y47435421D01*
X13217257Y47274004D01*
X13398299Y46875778D01*
X13398941Y46874377D01*
X13398942Y46874376D01*
X13400684Y46871917D01*
X13415687Y46843753D01*
X13425897Y46816831D01*
X13425900Y46816826D01*
X13425901Y46816823D01*
X13523198Y46675865D01*
X13651401Y46562286D01*
X13803060Y46482690D01*
X13969361Y46441700D01*
X13969362Y46441700D01*
X14085145Y46441700D01*
X14153266Y46421698D01*
X14199759Y46368042D01*
X14209863Y46297768D01*
X14180369Y46233188D01*
X14174255Y46226621D01*
X12714328Y44766694D01*
X12244991Y44297357D01*
X12239721Y44292647D01*
X12210524Y44269363D01*
X12210517Y44269355D01*
X12178371Y44222204D01*
X12144481Y44176286D01*
X12140655Y44169047D01*
X12137110Y44161685D01*
X12133451Y44149820D01*
X12120292Y44107160D01*
X12105790Y44065717D01*
X12101437Y44053276D01*
X12099919Y44045259D01*
X12098700Y44037163D01*
X12098700Y43980093D01*
X12096565Y43923050D01*
X12097623Y43913671D01*
X12096714Y43913569D01*
X12098700Y43898501D01*
X12098700Y37649819D01*
X12098304Y37642760D01*
X12094123Y37605654D01*
X12104733Y37549573D01*
X12113240Y37493137D01*
X12115659Y37485296D01*
X12118348Y37477612D01*
X12145019Y37427147D01*
X12169781Y37375727D01*
X12174397Y37368958D01*
X12179242Y37362394D01*
X12179243Y37362392D01*
X12219607Y37322028D01*
X12255620Y37283215D01*
X12258420Y37280198D01*
X12265806Y37274308D01*
X12265236Y37273594D01*
X12277291Y37264344D01*
X12483265Y37058370D01*
X12508873Y37021421D01*
X12639994Y36733004D01*
X12763299Y36461778D01*
X12763941Y36460377D01*
X12763942Y36460376D01*
X12765684Y36457917D01*
X12780687Y36429753D01*
X12790897Y36402831D01*
X12790899Y36402828D01*
X12790901Y36402823D01*
X12888198Y36261865D01*
X13016401Y36148286D01*
X13168060Y36068690D01*
X13334361Y36027700D01*
X13334362Y36027700D01*
X13505638Y36027700D01*
X13505639Y36027700D01*
X13671940Y36068690D01*
X13823599Y36148286D01*
X13951802Y36261865D01*
X14049099Y36402823D01*
X14109835Y36562971D01*
X14116040Y36614070D01*
X14130480Y36732997D01*
X14130480Y36733004D01*
X14109836Y36903025D01*
X14109834Y36903032D01*
X14064935Y37021421D01*
X14049099Y37063177D01*
X13951802Y37204135D01*
X13865946Y37280198D01*
X13823598Y37317715D01*
X13709044Y37377837D01*
X13702147Y37382041D01*
X13691223Y37389701D01*
X13131580Y37644126D01*
X13094631Y37669734D01*
X13000205Y37764160D01*
X12966179Y37826472D01*
X12963300Y37853255D01*
X12963300Y43740747D01*
X12983302Y43808868D01*
X13000200Y43829837D01*
X15230021Y46059659D01*
X15235265Y46064346D01*
X15264478Y46087640D01*
X15296635Y46134807D01*
X15330520Y46180718D01*
X15330522Y46180727D01*
X15334345Y46187959D01*
X15337886Y46195310D01*
X15337886Y46195311D01*
X15337888Y46195313D01*
X15354711Y46249855D01*
X15373561Y46303722D01*
X15373561Y46303725D01*
X15375082Y46311765D01*
X15376300Y46319843D01*
X15376300Y46376935D01*
X15378433Y46433951D01*
X15377376Y46443333D01*
X15378283Y46443436D01*
X15376300Y46458498D01*
X15376300Y46762727D01*
X15396302Y46830848D01*
X15449958Y46877341D01*
X15520232Y46887445D01*
X15560853Y46874296D01*
X15581060Y46863690D01*
X15747361Y46822700D01*
X15747362Y46822700D01*
X15918638Y46822700D01*
X15918639Y46822700D01*
X16084940Y46863690D01*
X16236599Y46943286D01*
X16364802Y47056865D01*
X16462099Y47197823D01*
X16522835Y47357971D01*
X16533285Y47444029D01*
X16543480Y47527997D01*
X16543480Y47528004D01*
X16522836Y47698025D01*
X16522834Y47698032D01*
X16488059Y47789726D01*
X16462099Y47858177D01*
X16364802Y47999135D01*
X16299758Y48056760D01*
X16236598Y48112715D01*
X16236592Y48112719D01*
X16232366Y48114937D01*
X16181346Y48164309D01*
X16165118Y48233426D01*
X16188834Y48300344D01*
X16232382Y48338073D01*
X16236597Y48340285D01*
X16236596Y48340285D01*
X16236599Y48340286D01*
X16364802Y48453865D01*
X16462099Y48594823D01*
X16522835Y48754971D01*
X16542227Y48914676D01*
X16543480Y48924997D01*
X16543480Y48925004D01*
X16522836Y49095025D01*
X16522835Y49095027D01*
X16522835Y49095029D01*
X16493140Y49173326D01*
X16487859Y49191106D01*
X16483803Y49209685D01*
X16284471Y49681392D01*
X16270804Y49713735D01*
X16263063Y49739359D01*
X16259266Y49759428D01*
X16250759Y49815867D01*
X16248353Y49823664D01*
X16245650Y49831388D01*
X16245650Y49831392D01*
X16225101Y49870273D01*
X16218980Y49881855D01*
X16194218Y49933274D01*
X16189612Y49940029D01*
X16184756Y49946610D01*
X16155289Y49976076D01*
X16144392Y49986973D01*
X16105579Y50028803D01*
X16105578Y50028804D01*
X16098196Y50034691D01*
X16098764Y50035404D01*
X16086710Y50044655D01*
X15286205Y50845160D01*
X15252179Y50907472D01*
X15249300Y50934255D01*
X15249300Y52350563D01*
X15257320Y52394797D01*
X15473141Y52970428D01*
X15473669Y52971847D01*
X15473785Y52972532D01*
X15474109Y52973487D01*
X15475200Y52977544D01*
X15475460Y52977475D01*
X15484847Y53005186D01*
X15484607Y53005285D01*
X15486128Y53008969D01*
X15486475Y53009992D01*
X15486832Y53010670D01*
X15502088Y53060110D01*
X15503372Y53063843D01*
X15506835Y53072972D01*
X15508660Y53080374D01*
X15509048Y53080279D01*
X15510661Y53087885D01*
X15664113Y53585115D01*
X15695411Y53637048D01*
X16864162Y54805798D01*
X16926472Y54839821D01*
X16953255Y54842700D01*
X17710182Y54842700D01*
X17717238Y54842305D01*
X17754347Y54838123D01*
X17810427Y54848734D01*
X17866862Y54857240D01*
X17874684Y54859654D01*
X17882383Y54862349D01*
X17882392Y54862350D01*
X17932853Y54889020D01*
X17952205Y54898339D01*
X17984270Y54913780D01*
X17984270Y54913781D01*
X17984274Y54913782D01*
X17984276Y54913785D01*
X17991028Y54918388D01*
X17997603Y54923241D01*
X17997608Y54923243D01*
X18037972Y54963608D01*
X18079803Y55002421D01*
X18079803Y55002422D01*
X18085691Y55009805D01*
X18086408Y55009233D01*
X18095653Y55021290D01*
X18642161Y55567796D01*
X18704473Y55601821D01*
X18731256Y55604700D01*
X19893564Y55604700D01*
X19937797Y55596681D01*
X20513426Y55380859D01*
X20514846Y55380331D01*
X20514847Y55380331D01*
X20520368Y55378278D01*
X20520176Y55377763D01*
X20526846Y55375154D01*
X20526937Y55375392D01*
X20534054Y55372693D01*
X20534060Y55372690D01*
X20700361Y55331700D01*
X20700362Y55331700D01*
X20871638Y55331700D01*
X20871639Y55331700D01*
X21037940Y55372690D01*
X21189599Y55452286D01*
X21317802Y55565865D01*
X21415099Y55706823D01*
X21475835Y55866971D01*
X21477205Y55878247D01*
X21496480Y56036997D01*
X21496480Y56037006D01*
X21491319Y56079514D01*
X21502964Y56149549D01*
X21550625Y56202170D01*
X21616400Y56220700D01*
X21760638Y56220700D01*
X21760639Y56220700D01*
X21926940Y56261690D01*
X22078599Y56341286D01*
X22206802Y56454865D01*
X22304099Y56595823D01*
X22364835Y56755971D01*
X22385480Y56926000D01*
X22385480Y56926004D01*
X22364836Y57096025D01*
X22364834Y57096032D01*
X22328650Y57191441D01*
X22304099Y57256177D01*
X22206802Y57397135D01*
X22078599Y57510714D01*
X22078598Y57510715D01*
X21926939Y57590311D01*
X21760640Y57631300D01*
X21760639Y57631300D01*
X21589361Y57631300D01*
X21589359Y57631300D01*
X21423057Y57590310D01*
X21415935Y57587608D01*
X21415878Y57587757D01*
X21407742Y57584556D01*
X21407881Y57584187D01*
X20937846Y57407957D01*
X20908984Y57397135D01*
X20826795Y57366320D01*
X20782561Y57358300D01*
X18019826Y57358300D01*
X18012767Y57358696D01*
X18007257Y57359317D01*
X17975653Y57362878D01*
X17975652Y57362878D01*
X17975651Y57362878D01*
X17919557Y57352264D01*
X17863136Y57343760D01*
X17855313Y57341348D01*
X17847612Y57338652D01*
X17797146Y57311981D01*
X17745725Y57287218D01*
X17738974Y57282616D01*
X17732391Y57277757D01*
X17712209Y57257575D01*
X17692027Y57237393D01*
X17670329Y57217260D01*
X17650196Y57198579D01*
X17644314Y57191203D01*
X17643604Y57191769D01*
X17634350Y57179717D01*
X17087840Y56633205D01*
X17025527Y56599180D01*
X16998744Y56596300D01*
X16114819Y56596300D01*
X16107760Y56596696D01*
X16070653Y56600877D01*
X16014572Y56590267D01*
X15958141Y56581761D01*
X15950312Y56579346D01*
X15942608Y56576651D01*
X15892146Y56549981D01*
X15840725Y56525218D01*
X15833974Y56520616D01*
X15827391Y56515757D01*
X15807209Y56495575D01*
X15787027Y56475393D01*
X15765329Y56455260D01*
X15745196Y56436579D01*
X15739314Y56429203D01*
X15738603Y56429770D01*
X15729348Y56417715D01*
X14322052Y55010419D01*
X14270113Y54979117D01*
X13942588Y54878038D01*
X13871598Y54877063D01*
X13811350Y54914622D01*
X13780973Y54978791D01*
X13785035Y55035591D01*
X13886113Y55363115D01*
X13917413Y55415050D01*
X16119026Y57616663D01*
X16124270Y57621349D01*
X16153478Y57644640D01*
X16185628Y57691797D01*
X16219520Y57737718D01*
X16219521Y57737723D01*
X16223342Y57744952D01*
X16226884Y57752309D01*
X16226888Y57752313D01*
X16243709Y57806846D01*
X16262562Y57860723D01*
X16262562Y57860726D01*
X16264078Y57868738D01*
X16265300Y57876843D01*
X16265300Y57933909D01*
X16267434Y57990949D01*
X16266377Y58000331D01*
X16267283Y58000434D01*
X16265300Y58015501D01*
X16265300Y58446563D01*
X16273320Y58490797D01*
X16381814Y58780169D01*
X16489141Y59066428D01*
X16489669Y59067847D01*
X16491853Y59080654D01*
X16498243Y59104131D01*
X16522835Y59168971D01*
X16527203Y59204942D01*
X16543480Y59338997D01*
X16543480Y59339004D01*
X16522836Y59509025D01*
X16522834Y59509032D01*
X16510056Y59542724D01*
X16462099Y59669177D01*
X16364802Y59810135D01*
X16236599Y59923714D01*
X16236598Y59923715D01*
X16084939Y60003311D01*
X15918640Y60044300D01*
X15918639Y60044300D01*
X15747361Y60044300D01*
X15747359Y60044300D01*
X15581060Y60003311D01*
X15429402Y59923715D01*
X15429401Y59923715D01*
X15301198Y59810136D01*
X15203903Y59669181D01*
X15203899Y59669173D01*
X15143165Y59509032D01*
X15143163Y59509025D01*
X15122520Y59339004D01*
X15122520Y59338997D01*
X15130293Y59274977D01*
X15118648Y59204942D01*
X15070987Y59152321D01*
X15002443Y59133820D01*
X14975059Y59137451D01*
X14902643Y59155300D01*
X14902639Y59155300D01*
X14731361Y59155300D01*
X14731359Y59155300D01*
X14565060Y59114311D01*
X14413402Y59034715D01*
X14413401Y59034715D01*
X14285198Y58921136D01*
X14187900Y58780176D01*
X14187896Y58780169D01*
X14177309Y58752254D01*
X14162679Y58724620D01*
X14160306Y58721235D01*
X14160304Y58721232D01*
X13905874Y58161581D01*
X13880266Y58124633D01*
X12512302Y56756669D01*
X12460364Y56725367D01*
X12161735Y56633205D01*
X11882475Y56547021D01*
X11882463Y56547018D01*
X11882463Y56547017D01*
X11879442Y56546008D01*
X11874573Y56544598D01*
X11866313Y56542562D01*
X11866302Y56542558D01*
X11858269Y56538342D01*
X11852353Y56535617D01*
X11851745Y56535375D01*
X11851657Y56535328D01*
X11845596Y56531690D01*
X11714651Y56462965D01*
X11714649Y56462963D01*
X11586448Y56349386D01*
X11489153Y56208431D01*
X11489149Y56208423D01*
X11428415Y56048282D01*
X11428413Y56048275D01*
X11407770Y55878254D01*
X11407770Y55878247D01*
X11058300Y55878247D01*
X11058300Y64156930D01*
X11078302Y64225051D01*
X11095205Y64246025D01*
X11415538Y64566358D01*
X11741385Y64892205D01*
X11773887Y64924707D01*
X11796469Y64960649D01*
X11800537Y64966382D01*
X11826998Y64999560D01*
X11845415Y65037806D01*
X11848816Y65043959D01*
X11871394Y65079890D01*
X11885410Y65119949D01*
X11888105Y65126453D01*
X11906517Y65164684D01*
X11915956Y65206045D01*
X11917912Y65212832D01*
X11931925Y65252877D01*
X11931926Y65252879D01*
X11936676Y65295044D01*
X11937860Y65302005D01*
X11943479Y65326624D01*
X11947300Y65343363D01*
X11947300Y65526637D01*
X11947300Y65689000D01*
X24547604Y65689000D01*
X24567921Y65508672D01*
X24627857Y65337383D01*
X24635498Y65325223D01*
X24724407Y65183726D01*
X24724410Y65183723D01*
X24724410Y65183722D01*
X24852721Y65055411D01*
X24852723Y65055410D01*
X24852726Y65055407D01*
X25006382Y64958858D01*
X25177670Y64898922D01*
X25177669Y64898922D01*
X25195929Y64896865D01*
X25358000Y64878604D01*
X25538330Y64898922D01*
X25709618Y64958858D01*
X25863274Y65055407D01*
X25991593Y65183726D01*
X26088142Y65337382D01*
X26091212Y65346158D01*
X26102100Y65369375D01*
X26104406Y65373219D01*
X26104414Y65373229D01*
X26242762Y65661130D01*
X26258209Y65693274D01*
X26305743Y65746010D01*
X26371777Y65764700D01*
X29773139Y65764700D01*
X29841260Y65744698D01*
X29862234Y65727796D01*
X29917628Y65672403D01*
X29937010Y65647407D01*
X30319828Y64999560D01*
X30332912Y64977419D01*
X30339738Y64962736D01*
X30339787Y64962759D01*
X30342857Y64956383D01*
X30439407Y64802726D01*
X30439410Y64802722D01*
X30567721Y64674411D01*
X30567723Y64674410D01*
X30567726Y64674407D01*
X30721382Y64577858D01*
X30892670Y64517922D01*
X30892669Y64517922D01*
X30910929Y64515865D01*
X31073000Y64497604D01*
X31253330Y64517922D01*
X31424618Y64577858D01*
X31578274Y64674407D01*
X31706593Y64802726D01*
X31803142Y64956382D01*
X31863078Y65127670D01*
X31883396Y65308000D01*
X31863078Y65488330D01*
X31803142Y65659618D01*
X31706593Y65813274D01*
X31706589Y65813278D01*
X31706589Y65813279D01*
X31578278Y65941590D01*
X31578275Y65941592D01*
X31578274Y65941593D01*
X31424618Y66038142D01*
X31424615Y66038144D01*
X31418242Y66041213D01*
X31418265Y66041262D01*
X31403582Y66048088D01*
X30733591Y66443991D01*
X30708599Y66463370D01*
X30459239Y66712730D01*
X30413286Y66761934D01*
X30374855Y66785305D01*
X30369535Y66788926D01*
X30351742Y66802418D01*
X30333699Y66816102D01*
X30333697Y66816103D01*
X30316732Y66822793D01*
X30297495Y66832349D01*
X30281921Y66841819D01*
X30281920Y66841820D01*
X30255076Y66849341D01*
X30238611Y66853955D01*
X30232503Y66856009D01*
X30190668Y66872506D01*
X30190663Y66872507D01*
X30172534Y66874371D01*
X30151432Y66878381D01*
X30133874Y66883300D01*
X30088900Y66883300D01*
X30082452Y66883631D01*
X30037727Y66888230D01*
X30019764Y66885132D01*
X29998356Y66883300D01*
X26002554Y66883300D01*
X25935266Y66885599D01*
X25935265Y66885599D01*
X25891563Y66874951D01*
X25885225Y66873746D01*
X25840689Y66867625D01*
X25840681Y66867623D01*
X25823960Y66860360D01*
X25803609Y66853517D01*
X25785894Y66849199D01*
X25785888Y66849197D01*
X25746686Y66827155D01*
X25740908Y66824285D01*
X25699666Y66806370D01*
X25685521Y66794863D01*
X25667772Y66782784D01*
X25651876Y66773846D01*
X25651873Y66773843D01*
X25620074Y66742045D01*
X25615284Y66737723D01*
X25580402Y66709343D01*
X25580400Y66709341D01*
X25572214Y66697745D01*
X25521942Y66655948D01*
X25047179Y66437537D01*
X25046314Y66437138D01*
X25041245Y66434194D01*
X25040802Y66434956D01*
X25018317Y66423319D01*
X25006383Y66419143D01*
X24939843Y66377334D01*
X24852726Y66322593D01*
X24852724Y66322592D01*
X24852722Y66322590D01*
X24852721Y66322590D01*
X24724410Y66194279D01*
X24724410Y66194278D01*
X24724408Y66194276D01*
X24724407Y66194274D01*
X24692805Y66143981D01*
X24627857Y66040618D01*
X24567921Y65869329D01*
X24547604Y65689000D01*
X11947300Y65689000D01*
X11947300Y66623672D01*
X11931926Y66760121D01*
X11871394Y66933110D01*
X11773887Y67088293D01*
X11773886Y67088294D01*
X11773885Y67088296D01*
X11644295Y67217886D01*
X11489108Y67315395D01*
X11402615Y67345660D01*
X11316121Y67375926D01*
X11134000Y67396446D01*
X10951879Y67375926D01*
X10951876Y67375926D01*
X10951876Y67375925D01*
X10778891Y67315395D01*
X10623704Y67217886D01*
X10494114Y67088296D01*
X10396605Y66933109D01*
X10336709Y66761935D01*
X10336074Y66760121D01*
X10330353Y66709343D01*
X10320700Y66623673D01*
X10320700Y65824070D01*
X10300698Y65755949D01*
X10283795Y65734975D01*
X9734707Y65185887D01*
X9698958Y65150138D01*
X9605110Y65056291D01*
X9582540Y65020372D01*
X9578451Y65014609D01*
X9552005Y64981447D01*
X9552000Y64981438D01*
X9533591Y64943213D01*
X9530173Y64937028D01*
X9507606Y64901112D01*
X9507603Y64901106D01*
X9493595Y64861075D01*
X9490891Y64854546D01*
X9472483Y64816318D01*
X9472482Y64816313D01*
X9463042Y64774957D01*
X9461085Y64768166D01*
X9447073Y64728118D01*
X9442324Y64685967D01*
X9441140Y64678999D01*
X9431700Y64637639D01*
X9431700Y50711070D01*
X9411698Y50642949D01*
X9394795Y50621975D01*
X9226707Y50453887D01*
X9187612Y50414792D01*
X9097110Y50324291D01*
X9074540Y50288372D01*
X9070451Y50282609D01*
X9044005Y50249447D01*
X9044000Y50249438D01*
X9025591Y50211213D01*
X9022173Y50205028D01*
X8999606Y50169112D01*
X8999603Y50169106D01*
X8985595Y50129075D01*
X8982891Y50122546D01*
X8964483Y50084318D01*
X8964482Y50084313D01*
X8955042Y50042957D01*
X8953085Y50036166D01*
X8939073Y49996118D01*
X8934324Y49953967D01*
X8933140Y49946999D01*
X8923700Y49905639D01*
X8923700Y36614070D01*
X8903698Y36545949D01*
X8886795Y36524975D01*
X7659025Y35297205D01*
X7596713Y35263179D01*
X7569930Y35260300D01*
X6262328Y35260300D01*
X6125879Y35244926D01*
X6125876Y35244926D01*
X6125876Y35244925D01*
X5952891Y35184395D01*
X5797704Y35086886D01*
X5668114Y34957296D01*
X5570605Y34802109D01*
X5510075Y34629124D01*
X5510074Y34629121D01*
X5489554Y34447000D01*
X305300Y34447000D01*
X305300Y54639997D01*
X1025520Y54639997D01*
X1046164Y54469974D01*
X1071147Y54404098D01*
X1077434Y54381225D01*
X1079858Y54367428D01*
X1295680Y53791796D01*
X1303700Y53747562D01*
X1303700Y45142819D01*
X1303304Y45135760D01*
X1299123Y45098654D01*
X1309733Y45042573D01*
X1318240Y44986137D01*
X1320659Y44978296D01*
X1323348Y44970612D01*
X1350019Y44920147D01*
X1374781Y44868727D01*
X1379397Y44861958D01*
X1384244Y44855390D01*
X1424606Y44815029D01*
X1438318Y44800251D01*
X1460658Y44766694D01*
X1714299Y44208778D01*
X1714941Y44207377D01*
X1714942Y44207376D01*
X1716684Y44204917D01*
X1731687Y44176753D01*
X1741897Y44149831D01*
X1741899Y44149828D01*
X1741901Y44149823D01*
X1839198Y44008865D01*
X1967401Y43895286D01*
X2119060Y43815690D01*
X2285361Y43774700D01*
X2285362Y43774700D01*
X2456638Y43774700D01*
X2456639Y43774700D01*
X2622940Y43815690D01*
X2774599Y43895286D01*
X2902802Y44008865D01*
X3000099Y44149823D01*
X3060835Y44309971D01*
X3081480Y44480000D01*
X3081480Y44480004D01*
X3060836Y44650025D01*
X3060834Y44650032D01*
X3016590Y44766694D01*
X3000099Y44810177D01*
X2902802Y44951135D01*
X2871676Y44978711D01*
X2774598Y45064715D01*
X2660044Y45124837D01*
X2653147Y45129041D01*
X2642221Y45136702D01*
X2242154Y45318581D01*
X2188419Y45364982D01*
X2168300Y45433069D01*
X2168300Y51006145D01*
X2188302Y51074266D01*
X2241958Y51120759D01*
X2312232Y51130863D01*
X2376812Y51101369D01*
X2383395Y51095240D01*
X2450265Y51028370D01*
X2475873Y50991421D01*
X2572929Y50777935D01*
X2730299Y50431778D01*
X2730941Y50430377D01*
X2730942Y50430376D01*
X2732684Y50427917D01*
X2747687Y50399753D01*
X2757897Y50372831D01*
X2757900Y50372826D01*
X2757901Y50372823D01*
X2855198Y50231865D01*
X2983401Y50118286D01*
X3135060Y50038690D01*
X3301361Y49997700D01*
X3301362Y49997700D01*
X3472638Y49997700D01*
X3472639Y49997700D01*
X3638940Y50038690D01*
X3790599Y50118286D01*
X3888146Y50204707D01*
X3952399Y50234907D01*
X4022780Y50225576D01*
X4076943Y50179675D01*
X4097692Y50111779D01*
X4097700Y50110394D01*
X4097700Y48166441D01*
X4089680Y48122207D01*
X3873857Y47546569D01*
X3873330Y47545153D01*
X3871143Y47532339D01*
X3864753Y47508868D01*
X3840164Y47444029D01*
X3840164Y47444028D01*
X3819520Y47274004D01*
X3819520Y47273997D01*
X3840163Y47103976D01*
X3840165Y47103969D01*
X3883263Y46990330D01*
X3900901Y46943823D01*
X3998198Y46802865D01*
X4126401Y46689286D01*
X4278060Y46609690D01*
X4444361Y46568700D01*
X4444362Y46568700D01*
X4615638Y46568700D01*
X4615639Y46568700D01*
X4781940Y46609690D01*
X4933599Y46689286D01*
X5061802Y46802865D01*
X5159099Y46943823D01*
X5219835Y47103971D01*
X5231231Y47197820D01*
X5240480Y47273997D01*
X5240480Y47274004D01*
X5219836Y47444025D01*
X5219835Y47444028D01*
X5219835Y47444029D01*
X5194847Y47509914D01*
X5188563Y47532787D01*
X5186391Y47545151D01*
X5186141Y47546574D01*
X5008770Y48019653D01*
X4970320Y48122206D01*
X4962300Y48166440D01*
X4962300Y50929182D01*
X4962696Y50936241D01*
X4966877Y50973348D01*
X4966876Y50973349D01*
X4956266Y51029428D01*
X4947760Y51085862D01*
X4947759Y51085865D01*
X4945353Y51093664D01*
X4942650Y51101388D01*
X4942650Y51101392D01*
X4927074Y51130863D01*
X4915980Y51151855D01*
X4891218Y51203274D01*
X4886612Y51210029D01*
X4881756Y51216610D01*
X4861574Y51236791D01*
X4841392Y51256973D01*
X4802579Y51298803D01*
X4802578Y51298804D01*
X4795196Y51304691D01*
X4795764Y51305404D01*
X4783710Y51314655D01*
X3983205Y52115160D01*
X3949179Y52177472D01*
X3946300Y52204255D01*
X3946300Y59705963D01*
X3963992Y59770347D01*
X4241324Y60236881D01*
X4243631Y60240479D01*
X4270099Y60278823D01*
X4276136Y60294745D01*
X4278729Y60300643D01*
X4281681Y60306519D01*
X4293486Y60333043D01*
X4294241Y60337034D01*
X4300226Y60358265D01*
X4330835Y60438971D01*
X4351480Y60609000D01*
X4351480Y60609004D01*
X4330836Y60779025D01*
X4330834Y60779032D01*
X4318056Y60812724D01*
X4270099Y60939177D01*
X4270096Y60939181D01*
X4270095Y60939184D01*
X4243628Y60977528D01*
X4241322Y60981124D01*
X3963992Y61447655D01*
X3946300Y61512039D01*
X3946300Y64355381D01*
X3966302Y64423502D01*
X4019958Y64469995D01*
X4090232Y64480099D01*
X4130851Y64466950D01*
X4240962Y64409160D01*
X4247847Y64404964D01*
X4258777Y64397300D01*
X4787504Y64156930D01*
X4818418Y64142876D01*
X4855367Y64117268D01*
X5838795Y63133840D01*
X5872821Y63071528D01*
X5875700Y63044745D01*
X5875700Y53246441D01*
X5867680Y53202207D01*
X5651857Y52626569D01*
X5651330Y52625153D01*
X5649143Y52612339D01*
X5642753Y52588868D01*
X5618164Y52524029D01*
X5618164Y52524028D01*
X5597520Y52354004D01*
X5597520Y52353997D01*
X5618163Y52183976D01*
X5618165Y52183969D01*
X5678899Y52023828D01*
X5678901Y52023823D01*
X5776198Y51882865D01*
X5904401Y51769286D01*
X6056060Y51689690D01*
X6222361Y51648700D01*
X6222362Y51648700D01*
X6393638Y51648700D01*
X6393639Y51648700D01*
X6559940Y51689690D01*
X6580145Y51700295D01*
X6649757Y51714241D01*
X6715859Y51688338D01*
X6757465Y51630810D01*
X6764700Y51588727D01*
X6764700Y43097041D01*
X6747008Y43032656D01*
X6469649Y42566081D01*
X6467343Y42562486D01*
X6440902Y42524179D01*
X6440898Y42524174D01*
X6434894Y42508342D01*
X6432312Y42502458D01*
X6429205Y42496258D01*
X6429199Y42496245D01*
X6417512Y42469956D01*
X6417511Y42469954D01*
X6416753Y42465950D01*
X6410768Y42444724D01*
X6380163Y42364025D01*
X6359520Y42194004D01*
X6359520Y42193997D01*
X6380163Y42023976D01*
X6380165Y42023969D01*
X6440899Y41863828D01*
X6440901Y41863823D01*
X6538198Y41722865D01*
X6666401Y41609286D01*
X6818060Y41529690D01*
X6984361Y41488700D01*
X6984362Y41488700D01*
X7155638Y41488700D01*
X7155639Y41488700D01*
X7321940Y41529690D01*
X7473599Y41609286D01*
X7601802Y41722865D01*
X7699099Y41863823D01*
X7759835Y42023971D01*
X7780480Y42194000D01*
X7772783Y42257384D01*
X7772326Y42264882D01*
X7772326Y42265296D01*
X7771289Y42270798D01*
X7770667Y42274809D01*
X7759835Y42364029D01*
X7751628Y42385668D01*
X7745618Y42407016D01*
X7734512Y42465950D01*
X7631478Y43012699D01*
X7629300Y43036024D01*
X7629300Y64264175D01*
X7629696Y64271235D01*
X7633878Y64308347D01*
X7623263Y64364443D01*
X7617157Y64404959D01*
X7614760Y64420865D01*
X7612356Y64428659D01*
X7609649Y64436394D01*
X7582980Y64486854D01*
X7558218Y64538275D01*
X7553612Y64545029D01*
X7548756Y64551610D01*
X7522507Y64577858D01*
X7508392Y64591973D01*
X7469579Y64633803D01*
X7469578Y64633804D01*
X7462196Y64639691D01*
X7462764Y64640404D01*
X7450710Y64649655D01*
X7371732Y64728633D01*
X7346124Y64765582D01*
X7343430Y64771507D01*
X7137705Y65224029D01*
X7091701Y65325221D01*
X7091614Y65325409D01*
X7091058Y65326624D01*
X7091057Y65326625D01*
X7091058Y65326625D01*
X7089317Y65329081D01*
X7074309Y65357253D01*
X7066408Y65378087D01*
X7064099Y65384177D01*
X7064098Y65384178D01*
X7064097Y65384182D01*
X6966802Y65525135D01*
X6838598Y65638715D01*
X6686939Y65718311D01*
X6520640Y65759300D01*
X6520639Y65759300D01*
X6349361Y65759300D01*
X6349359Y65759300D01*
X6183060Y65718311D01*
X6031402Y65638715D01*
X6031401Y65638715D01*
X5903198Y65525136D01*
X5805903Y65384181D01*
X5805899Y65384173D01*
X5745165Y65224032D01*
X5745163Y65224025D01*
X5724520Y65054004D01*
X5724520Y65053997D01*
X5745163Y64883976D01*
X5745165Y64883969D01*
X5802038Y64734009D01*
X5807492Y64663223D01*
X5773810Y64600724D01*
X5711685Y64566358D01*
X5640843Y64571033D01*
X5595131Y64600234D01*
X5466732Y64728633D01*
X5441124Y64765582D01*
X5439949Y64768166D01*
X5306894Y65060838D01*
X5296911Y65131127D01*
X5301198Y65150128D01*
X5377113Y65396115D01*
X5408413Y65448050D01*
X10387159Y70426795D01*
X10449471Y70460821D01*
X10476254Y70463700D01*
X18522745Y70463700D01*
X18590866Y70443698D01*
X18611840Y70426795D01*
X19698650Y69339985D01*
X19703352Y69334723D01*
X19720179Y69313623D01*
X19726640Y69305522D01*
X19726643Y69305520D01*
X19726644Y69305519D01*
X19740866Y69295823D01*
X19773796Y69273372D01*
X19819718Y69239480D01*
X19819720Y69239480D01*
X19819722Y69239478D01*
X19826936Y69235665D01*
X19834310Y69232114D01*
X19834313Y69232112D01*
X19888840Y69215293D01*
X19942722Y69196438D01*
X19942726Y69196438D01*
X19950733Y69194923D01*
X19958839Y69193701D01*
X19958841Y69193700D01*
X19958843Y69193700D01*
X20015908Y69193700D01*
X20072949Y69191566D01*
X20072949Y69191567D01*
X20072950Y69191566D01*
X20082329Y69192623D01*
X20082431Y69191717D01*
X20097500Y69193700D01*
X22941564Y69193700D01*
X22985797Y69185681D01*
X23561426Y68969859D01*
X23562846Y68969331D01*
X23562847Y68969331D01*
X23568368Y68967278D01*
X23568176Y68966763D01*
X23574846Y68964154D01*
X23574937Y68964392D01*
X23582054Y68961693D01*
X23582060Y68961690D01*
X23748361Y68920700D01*
X23748362Y68920700D01*
X23919638Y68920700D01*
X23919639Y68920700D01*
X24085940Y68961690D01*
X24237599Y69041286D01*
X24365802Y69154865D01*
X24463099Y69295823D01*
X24523835Y69455971D01*
X24544480Y69626000D01*
X24544480Y69626004D01*
X24523836Y69796025D01*
X24523834Y69796032D01*
X24511056Y69829724D01*
X24463099Y69956177D01*
X24365802Y70097135D01*
X24237599Y70210714D01*
X24237598Y70210715D01*
X24085939Y70290311D01*
X23919640Y70331300D01*
X23919639Y70331300D01*
X23748361Y70331300D01*
X23748359Y70331300D01*
X23582057Y70290310D01*
X23574935Y70287608D01*
X23574878Y70287757D01*
X23566742Y70284556D01*
X23566881Y70284187D01*
X23160862Y70131958D01*
X23067984Y70097135D01*
X22985795Y70066320D01*
X22941561Y70058300D01*
X22057658Y70058300D01*
X21989537Y70078302D01*
X21943044Y70131958D01*
X21932940Y70202232D01*
X21939846Y70228980D01*
X21983834Y70344969D01*
X21983836Y70344976D01*
X22004480Y70514997D01*
X22004480Y70515004D01*
X21983836Y70685025D01*
X21983834Y70685032D01*
X21971056Y70718724D01*
X21923099Y70845177D01*
X21825802Y70986135D01*
X21697599Y71099714D01*
X21697598Y71099715D01*
X21697594Y71099717D01*
X21675149Y71111497D01*
X21624126Y71160865D01*
X21607893Y71229981D01*
X21631604Y71296901D01*
X21670699Y71332181D01*
X21725053Y71363562D01*
X21866475Y71490899D01*
X21978332Y71644856D01*
X22055734Y71818706D01*
X22095300Y72004849D01*
X27904700Y72004849D01*
X27944266Y71818706D01*
X28021670Y71644853D01*
X28133526Y71490897D01*
X28274939Y71363568D01*
X28274945Y71363564D01*
X28274947Y71363562D01*
X28357350Y71315987D01*
X28439751Y71268412D01*
X28439757Y71268409D01*
X28620741Y71209605D01*
X28620738Y71209605D01*
X28686043Y71202742D01*
X28762552Y71194700D01*
X28762555Y71194700D01*
X28857445Y71194700D01*
X28857448Y71194700D01*
X28999259Y71209605D01*
X29048795Y71225700D01*
X29180242Y71268409D01*
X29180244Y71268411D01*
X29180247Y71268411D01*
X29345053Y71363562D01*
X29486475Y71490899D01*
X29598332Y71644856D01*
X29675734Y71818706D01*
X29715300Y72004849D01*
X29715300Y72195151D01*
X29675734Y72381294D01*
X29598332Y72555143D01*
X29598330Y72555146D01*
X29598329Y72555148D01*
X29486473Y72709104D01*
X29345060Y72836433D01*
X29345050Y72836440D01*
X29180248Y72931589D01*
X29180242Y72931592D01*
X28999258Y72990396D01*
X28999261Y72990396D01*
X28857453Y73005300D01*
X28857448Y73005300D01*
X28762552Y73005300D01*
X28762546Y73005300D01*
X28620740Y72990396D01*
X28439757Y72931592D01*
X28439751Y72931589D01*
X28274949Y72836440D01*
X28274939Y72836433D01*
X28133526Y72709104D01*
X28021667Y72555144D01*
X28021667Y72555143D01*
X27944266Y72381297D01*
X27904700Y72195152D01*
X27904700Y72004849D01*
X22095300Y72004849D01*
X22095300Y72195151D01*
X22055734Y72381294D01*
X21978332Y72555143D01*
X21978330Y72555146D01*
X21978329Y72555148D01*
X21866473Y72709104D01*
X21725060Y72836433D01*
X21725050Y72836440D01*
X21560248Y72931589D01*
X21560242Y72931592D01*
X21379258Y72990396D01*
X21379261Y72990396D01*
X21237453Y73005300D01*
X21237448Y73005300D01*
X21142552Y73005300D01*
X21142546Y73005300D01*
X21000740Y72990396D01*
X20819757Y72931592D01*
X20819751Y72931589D01*
X20654949Y72836440D01*
X20654939Y72836433D01*
X20513526Y72709104D01*
X20401667Y72555144D01*
X20401667Y72555143D01*
X20324266Y72381297D01*
X20284700Y72195152D01*
X20284700Y72004849D01*
X20324266Y71818706D01*
X20401670Y71644853D01*
X20513526Y71490897D01*
X20654939Y71363568D01*
X20654942Y71363566D01*
X20654947Y71363562D01*
X20770208Y71297016D01*
X20819201Y71245633D01*
X20832636Y71175919D01*
X20806249Y71110009D01*
X20751441Y71069917D01*
X20524121Y70984688D01*
X20453314Y70979502D01*
X20390946Y71013419D01*
X19460343Y71944022D01*
X19455640Y71949285D01*
X19432360Y71978479D01*
X19385203Y72010629D01*
X19339282Y72044520D01*
X19339280Y72044521D01*
X19332055Y72048340D01*
X19324685Y72051889D01*
X19270159Y72068708D01*
X19216275Y72087563D01*
X19208283Y72089076D01*
X19200160Y72090300D01*
X19200159Y72090300D01*
X19200157Y72090300D01*
X19143092Y72090300D01*
X19086049Y72092435D01*
X19076671Y72091377D01*
X19076568Y72092284D01*
X19061500Y72090300D01*
X9941854Y72090300D01*
X9873733Y72110302D01*
X9827240Y72163958D01*
X9817136Y72234232D01*
X9846630Y72298812D01*
X9852759Y72305395D01*
X10552664Y73005300D01*
X13094633Y75547271D01*
X13131576Y75572875D01*
X13691222Y75827300D01*
X13692623Y75827942D01*
X13703370Y75835559D01*
X13710506Y75839932D01*
X13823599Y75899286D01*
X13951802Y76012865D01*
X14049099Y76153823D01*
X14109835Y76313971D01*
X14110965Y76323273D01*
X14130480Y76483997D01*
X14130480Y76484004D01*
X14109836Y76654025D01*
X14109834Y76654032D01*
X14071454Y76755232D01*
X14049099Y76814177D01*
X13951802Y76955135D01*
X13823599Y77068714D01*
X13823598Y77068715D01*
X13671939Y77148311D01*
X13505640Y77189300D01*
X13505639Y77189300D01*
X13334361Y77189300D01*
X13334359Y77189300D01*
X13168060Y77148311D01*
X13016402Y77068715D01*
X13016401Y77068715D01*
X12888198Y76955136D01*
X12790900Y76814176D01*
X12790896Y76814169D01*
X12780309Y76786254D01*
X12765679Y76758620D01*
X12763306Y76755235D01*
X12763304Y76755232D01*
X12763301Y76755226D01*
X12763300Y76755224D01*
X12734056Y76690897D01*
X12508873Y76195579D01*
X12483265Y76158631D01*
X2383395Y66058761D01*
X2321083Y66024735D01*
X2250268Y66029800D01*
X2193432Y66072347D01*
X2168621Y66138867D01*
X2168300Y66147856D01*
X2168300Y72670563D01*
X2176320Y72714797D01*
X2221927Y72836438D01*
X2392141Y73290428D01*
X2392669Y73291847D01*
X2394853Y73304654D01*
X2401243Y73328131D01*
X2425835Y73392971D01*
X2446480Y73563000D01*
X2446480Y73563004D01*
X2425836Y73733025D01*
X2425834Y73733032D01*
X2413056Y73766724D01*
X2365099Y73893177D01*
X2267802Y74034135D01*
X2139599Y74147714D01*
X2139598Y74147715D01*
X1987939Y74227311D01*
X1821640Y74268300D01*
X1821639Y74268300D01*
X1650361Y74268300D01*
X1650359Y74268300D01*
X1484060Y74227311D01*
X1332402Y74147715D01*
X1332401Y74147715D01*
X1204198Y74034136D01*
X1106903Y73893181D01*
X1106899Y73893173D01*
X1046165Y73733032D01*
X1046163Y73733025D01*
X1025520Y73563004D01*
X1025520Y73562997D01*
X1046164Y73392974D01*
X1071147Y73327098D01*
X1077434Y73304225D01*
X1079858Y73290430D01*
X1079857Y73290430D01*
X1295680Y72714796D01*
X1303700Y72670562D01*
X1303700Y55532441D01*
X1295680Y55488207D01*
X1237001Y55331700D01*
X1104686Y54978791D01*
X1079857Y54912569D01*
X1079330Y54911153D01*
X1077143Y54898339D01*
X1070753Y54874868D01*
X1046164Y54810029D01*
X1046164Y54810028D01*
X1025520Y54640004D01*
X1025520Y54639997D01*
X305300Y54639997D01*
X305300Y76323273D01*
X325302Y76391394D01*
X378958Y76437887D01*
X392347Y76443101D01*
X470247Y76468411D01*
X635053Y76563562D01*
X735523Y76654025D01*
X776473Y76690897D01*
X776473Y76690898D01*
X776475Y76690899D01*
X888332Y76844856D01*
X965734Y77018706D01*
X1005300Y77204849D01*
X1005300Y77395151D01*
X965734Y77581294D01*
X888332Y77755143D01*
X888330Y77755146D01*
X888329Y77755148D01*
X776473Y77909104D01*
X635060Y78036433D01*
X635050Y78036440D01*
X470252Y78131586D01*
X470247Y78131589D01*
X392362Y78156896D01*
X333758Y78196969D01*
X306121Y78262366D01*
X305300Y78276728D01*
X305300Y81354544D01*
X325302Y81422665D01*
X378958Y81469158D01*
X449232Y81479262D01*
X513812Y81449768D01*
X552196Y81390042D01*
X555117Y81377894D01*
X562224Y81340206D01*
X594683Y81168057D01*
X594686Y81168048D01*
X702399Y80810820D01*
X702403Y80810811D01*
X847484Y80467044D01*
X847492Y80467027D01*
X983092Y80222228D01*
X1028293Y80140626D01*
X1137536Y79985101D01*
X1242772Y79835282D01*
X1242777Y79835276D01*
X1488482Y79554474D01*
X1488484Y79554472D01*
X1762655Y79301371D01*
X2062171Y79078849D01*
X2062172Y79078847D01*
X2062176Y79078845D01*
X2062177Y79078844D01*
X2383655Y78889415D01*
X2723446Y78735230D01*
X3077702Y78618036D01*
X3442408Y78539161D01*
X3442410Y78539161D01*
X3442414Y78539160D01*
X3813418Y78499500D01*
X3813425Y78499500D01*
X3813431Y78499499D01*
X3813436Y78499499D01*
X4093219Y78499499D01*
X4372596Y78514389D01*
X4372601Y78514390D01*
X4372609Y78514390D01*
X4740995Y78573743D01*
X5100986Y78671916D01*
X5448503Y78807798D01*
X5779607Y78979849D01*
X6090547Y79186119D01*
X6377801Y79424272D01*
X6638114Y79691609D01*
X6868535Y79985101D01*
X7066455Y80301422D01*
X7229631Y80636989D01*
X7356213Y80987999D01*
X7444769Y81350476D01*
X7494294Y81720312D01*
X7504227Y82093317D01*
X7489309Y82279696D01*
X7474457Y82465260D01*
X7439828Y82648914D01*
X7405317Y82831941D01*
X7351022Y83012008D01*
X7297600Y83189181D01*
X7297596Y83189190D01*
X7152515Y83532957D01*
X7152511Y83532967D01*
X6971707Y83859374D01*
X6757232Y84164713D01*
X6757227Y84164719D01*
X6757222Y84164725D01*
X6511517Y84445527D01*
X6511515Y84445529D01*
X6237344Y84698630D01*
X5937828Y84921152D01*
X5937827Y84921154D01*
X5769813Y85020155D01*
X5616345Y85110585D01*
X5276554Y85264770D01*
X4922298Y85381964D01*
X4922297Y85381965D01*
X4922288Y85381967D01*
X4628300Y85445547D01*
X4565946Y85479497D01*
X4531846Y85541768D01*
X4536825Y85612590D01*
X4579303Y85669477D01*
X4645793Y85694368D01*
X4654934Y85694700D01*
X45350976Y85694700D01*
X45419097Y85674698D01*
G37*
%TD.AperFunction*%
%TD*%
%TA.AperFunction,Conductor*%
%TO.N,+3.3V*%
G36*
X30553308Y66190096D02*
G01*
X30918600Y65974243D01*
X31255614Y65775098D01*
X31260993Y65767939D01*
X31260480Y65760568D01*
X31075563Y65311798D01*
X31069242Y65305454D01*
X31069202Y65305437D01*
X30620432Y65120520D01*
X30611478Y65120537D01*
X30605903Y65125386D01*
X30230568Y65760568D01*
X30190904Y65827692D01*
X30189646Y65836558D01*
X30192702Y65841915D01*
X30539084Y66188297D01*
X30547356Y66191723D01*
X30553308Y66190096D01*
G37*
%TD.AperFunction*%
%TD*%
%TA.AperFunction,Conductor*%
%TO.N,+3.3V*%
G36*
X26093903Y66564629D02*
G01*
X26094974Y66559739D01*
X26094974Y66072667D01*
X26093820Y66067599D01*
X25824731Y65507629D01*
X25818059Y65501657D01*
X25809716Y65501884D01*
X25361495Y65687142D01*
X25355158Y65693469D01*
X25170938Y66140553D01*
X25170955Y66149505D01*
X25176864Y66155636D01*
X26078384Y66570369D01*
X26087332Y66570713D01*
X26093903Y66564629D01*
G37*
%TD.AperFunction*%
%TD*%
%TA.AperFunction,Conductor*%
%TO.N,/I2C-IRQ*%
G36*
X2095138Y73414269D02*
G01*
X2101456Y73407922D01*
X2101591Y73399363D01*
X1865847Y72770593D01*
X1859734Y72764049D01*
X1854892Y72763000D01*
X1617108Y72763000D01*
X1608835Y72766427D01*
X1606153Y72770593D01*
X1370408Y73399365D01*
X1370712Y73408312D01*
X1376859Y73414268D01*
X1731500Y73562125D01*
X1740449Y73562145D01*
X2095138Y73414269D01*
G37*
%TD.AperFunction*%
%TD*%
%TA.AperFunction,Conductor*%
%TO.N,/I2C-IRQ*%
G36*
X1863165Y55436573D02*
G01*
X1865847Y55432407D01*
X2101591Y54803638D01*
X2101287Y54794689D01*
X2095138Y54788732D01*
X1740502Y54640877D01*
X1731548Y54640856D01*
X1731498Y54640877D01*
X1376861Y54788732D01*
X1370543Y54795079D01*
X1370408Y54803636D01*
X1606153Y55432408D01*
X1612266Y55438951D01*
X1617108Y55440000D01*
X1854892Y55440000D01*
X1863165Y55436573D01*
G37*
%TD.AperFunction*%
%TD*%
%TA.AperFunction,Conductor*%
%TO.N,/RXD*%
G36*
X4657165Y48070573D02*
G01*
X4659847Y48066407D01*
X4895591Y47437638D01*
X4895287Y47428689D01*
X4889138Y47422732D01*
X4534502Y47274877D01*
X4525548Y47274856D01*
X4525498Y47274877D01*
X4170861Y47422732D01*
X4164543Y47429079D01*
X4164408Y47437636D01*
X4400153Y48066408D01*
X4406266Y48072951D01*
X4411108Y48074000D01*
X4648892Y48074000D01*
X4657165Y48070573D01*
G37*
%TD.AperFunction*%
%TD*%
%TA.AperFunction,Conductor*%
%TO.N,/RXD*%
G36*
X3643171Y60609095D02*
G01*
X3998107Y60461116D01*
X4004425Y60454769D01*
X4004404Y60445815D01*
X4003662Y60444338D01*
X3644401Y59839983D01*
X3637228Y59834623D01*
X3634344Y59834262D01*
X3396701Y59834262D01*
X3388428Y59837689D01*
X3385203Y59843795D01*
X3272030Y60444338D01*
X3243606Y60595171D01*
X3245442Y60603934D01*
X3252937Y60608834D01*
X3255066Y60609036D01*
X3638648Y60609995D01*
X3643171Y60609095D01*
G37*
%TD.AperFunction*%
%TD*%
%TA.AperFunction,Conductor*%
%TO.N,/I2C-IRQ*%
G36*
X1902495Y45132134D02*
G01*
X2306419Y44948502D01*
X2513801Y44854222D01*
X2519914Y44847678D01*
X2519779Y44839119D01*
X2373563Y44483805D01*
X2367245Y44477458D01*
X2367195Y44477437D01*
X2011881Y44331221D01*
X2002927Y44331242D01*
X1996778Y44337199D01*
X1933023Y44477437D01*
X1718866Y44948504D01*
X1718563Y44957451D01*
X1721243Y44961615D01*
X1889384Y45129756D01*
X1897656Y45133182D01*
X1902495Y45132134D01*
G37*
%TD.AperFunction*%
%TD*%
%TA.AperFunction,Conductor*%
%TO.N,/I2C-IRQ*%
G36*
X2095138Y54491269D02*
G01*
X2101456Y54484922D01*
X2101591Y54476363D01*
X1865847Y53847593D01*
X1859734Y53841049D01*
X1854892Y53840000D01*
X1617108Y53840000D01*
X1608835Y53843427D01*
X1606153Y53847593D01*
X1370408Y54476365D01*
X1370712Y54485312D01*
X1376859Y54491268D01*
X1731500Y54639125D01*
X1740449Y54639145D01*
X2095138Y54491269D01*
G37*
%TD.AperFunction*%
%TD*%
%TA.AperFunction,Conductor*%
%TO.N,/SDA*%
G36*
X2918495Y51355134D02*
G01*
X3322419Y51171502D01*
X3529801Y51077222D01*
X3535914Y51070678D01*
X3535779Y51062119D01*
X3389563Y50706805D01*
X3383245Y50700458D01*
X3383195Y50700437D01*
X3027881Y50554221D01*
X3018927Y50554242D01*
X3012778Y50560199D01*
X2949023Y50700437D01*
X2734866Y51171504D01*
X2734563Y51180451D01*
X2737243Y51184615D01*
X2905384Y51352756D01*
X2913656Y51356182D01*
X2918495Y51355134D01*
G37*
%TD.AperFunction*%
%TD*%
%TA.AperFunction,Conductor*%
%TO.N,/SDA*%
G36*
X13060880Y76632781D02*
G01*
X13416195Y76486564D01*
X13422542Y76480246D01*
X13422563Y76480196D01*
X13568779Y76124882D01*
X13568758Y76115928D01*
X13562801Y76109779D01*
X12951498Y75831868D01*
X12942549Y75831564D01*
X12938383Y75834246D01*
X12770245Y76002384D01*
X12766818Y76010657D01*
X12767866Y76015495D01*
X13045779Y76626803D01*
X13052322Y76632915D01*
X13060880Y76632781D01*
G37*
%TD.AperFunction*%
%TD*%
%TA.AperFunction,Conductor*%
%TO.N,/XL*%
G36*
X12951495Y37385134D02*
G01*
X13355419Y37201502D01*
X13562801Y37107222D01*
X13568914Y37100678D01*
X13568779Y37092119D01*
X13422563Y36736805D01*
X13416245Y36730458D01*
X13416195Y36730437D01*
X13060881Y36584221D01*
X13051927Y36584242D01*
X13045778Y36590199D01*
X12982023Y36730437D01*
X12767866Y37201504D01*
X12767563Y37210451D01*
X12770243Y37214615D01*
X12938384Y37382756D01*
X12946656Y37386182D01*
X12951495Y37385134D01*
G37*
%TD.AperFunction*%
%TD*%
%TA.AperFunction,Conductor*%
%TO.N,/XL*%
G36*
X14441223Y48925025D02*
G01*
X14449489Y48921584D01*
X14452901Y48913304D01*
X14452743Y48911409D01*
X14351891Y48304031D01*
X14348622Y48297674D01*
X14181112Y48130164D01*
X14172839Y48126737D01*
X14164566Y48130164D01*
X14163552Y48131321D01*
X13778377Y48634039D01*
X13776065Y48642690D01*
X13779369Y48649406D01*
X14050855Y48922252D01*
X14059116Y48925699D01*
X14441223Y48925025D01*
G37*
%TD.AperFunction*%
%TD*%
%TA.AperFunction,Conductor*%
%TO.N,/YD*%
G36*
X12477805Y55729345D02*
G01*
X12484122Y55722999D01*
X12484416Y55714890D01*
X12279647Y55092608D01*
X12273806Y55085820D01*
X12268533Y55084565D01*
X12030717Y55084565D01*
X12022444Y55087992D01*
X12019962Y55091660D01*
X11753347Y55714319D01*
X11753240Y55723273D01*
X11759497Y55729679D01*
X11759526Y55729692D01*
X12113750Y55877375D01*
X12122699Y55877395D01*
X12477805Y55729345D01*
G37*
%TD.AperFunction*%
%TD*%
%TA.AperFunction,Conductor*%
%TO.N,/YD*%
G36*
X13586495Y47799134D02*
G01*
X13990419Y47615502D01*
X14197801Y47521222D01*
X14203914Y47514678D01*
X14203779Y47506119D01*
X14057563Y47150805D01*
X14051245Y47144458D01*
X14051195Y47144437D01*
X13695881Y46998221D01*
X13686927Y46998242D01*
X13680778Y47004199D01*
X13617023Y47144437D01*
X13402866Y47615504D01*
X13402563Y47624451D01*
X13405243Y47628615D01*
X13573384Y47796756D01*
X13581656Y47800182D01*
X13586495Y47799134D01*
G37*
%TD.AperFunction*%
%TD*%
%TA.AperFunction,Conductor*%
%TO.N,/XL*%
G36*
X13586495Y49577134D02*
G01*
X13990419Y49393502D01*
X14197801Y49299222D01*
X14203914Y49292678D01*
X14203779Y49284119D01*
X14057563Y48928805D01*
X14051245Y48922458D01*
X14051195Y48922437D01*
X13695881Y48776221D01*
X13686927Y48776242D01*
X13680778Y48782199D01*
X13617023Y48922437D01*
X13402866Y49393504D01*
X13402563Y49402451D01*
X13405243Y49406615D01*
X13573384Y49574756D01*
X13581656Y49578182D01*
X13586495Y49577134D01*
G37*
%TD.AperFunction*%
%TD*%
%TA.AperFunction,Conductor*%
%TO.N,/XL*%
G36*
X13398138Y54872269D02*
G01*
X13404456Y54865922D01*
X13404591Y54857363D01*
X13168847Y54228593D01*
X13162734Y54222049D01*
X13157892Y54221000D01*
X12920108Y54221000D01*
X12911835Y54224427D01*
X12909153Y54228593D01*
X12673408Y54857365D01*
X12673712Y54866312D01*
X12679859Y54872268D01*
X13034500Y55020125D01*
X13043449Y55020145D01*
X13398138Y54872269D01*
G37*
%TD.AperFunction*%
%TD*%
%TA.AperFunction,Conductor*%
%TO.N,/XR*%
G36*
X15176138Y53094269D02*
G01*
X15182456Y53087922D01*
X15182591Y53079363D01*
X14946847Y52450593D01*
X14940734Y52444049D01*
X14935892Y52443000D01*
X14698108Y52443000D01*
X14689835Y52446427D01*
X14687153Y52450593D01*
X14451408Y53079365D01*
X14451712Y53088312D01*
X14457859Y53094268D01*
X14812500Y53242125D01*
X14821449Y53242145D01*
X15176138Y53094269D01*
G37*
%TD.AperFunction*%
%TD*%
%TA.AperFunction,Conductor*%
%TO.N,/XR*%
G36*
X15900191Y49791386D02*
G01*
X15902695Y49787667D01*
X16197975Y49088902D01*
X16198039Y49079948D01*
X16191752Y49073571D01*
X16191700Y49073549D01*
X15838200Y48926167D01*
X15829246Y48926146D01*
X15829210Y48926161D01*
X15474695Y49073402D01*
X15468369Y49079740D01*
X15468378Y49088695D01*
X15468566Y49089124D01*
X15715456Y49622188D01*
X15717795Y49625536D01*
X15883646Y49791387D01*
X15891918Y49794813D01*
X15900191Y49791386D01*
G37*
%TD.AperFunction*%
%TD*%
%TA.AperFunction,Conductor*%
%TO.N,/YD*%
G36*
X14457880Y58598781D02*
G01*
X14813195Y58452564D01*
X14819542Y58446246D01*
X14819563Y58446196D01*
X14965779Y58090882D01*
X14965758Y58081928D01*
X14959801Y58075779D01*
X14348498Y57797868D01*
X14339549Y57797564D01*
X14335383Y57800246D01*
X14167245Y57968384D01*
X14163818Y57976657D01*
X14164866Y57981495D01*
X14442779Y58592803D01*
X14449322Y58598915D01*
X14457880Y58598781D01*
G37*
%TD.AperFunction*%
%TD*%
%TA.AperFunction,Conductor*%
%TO.N,/YD*%
G36*
X12647181Y56454693D02*
G01*
X12649988Y56452621D01*
X12818102Y56284507D01*
X12821529Y56276234D01*
X12819821Y56270147D01*
X12493002Y55733714D01*
X12485771Y55728431D01*
X12478558Y55728981D01*
X12122054Y55875687D01*
X12115707Y55882005D01*
X12115686Y55882055D01*
X11970054Y56235950D01*
X11970075Y56244904D01*
X11976422Y56251222D01*
X11977416Y56251580D01*
X12638265Y56455528D01*
X12647181Y56454693D01*
G37*
%TD.AperFunction*%
%TD*%
%TA.AperFunction,Conductor*%
%TO.N,/YU*%
G36*
X15421958Y48217252D02*
G01*
X15977094Y47902641D01*
X15982602Y47895581D01*
X15982145Y47888010D01*
X15835563Y47531805D01*
X15829245Y47525458D01*
X15829195Y47525437D01*
X15474935Y47379655D01*
X15465981Y47379676D01*
X15459663Y47386023D01*
X15459424Y47386658D01*
X15236978Y48035132D01*
X15237535Y48044066D01*
X15239769Y48047195D01*
X15407920Y48215346D01*
X15416192Y48218772D01*
X15421958Y48217252D01*
G37*
%TD.AperFunction*%
%TD*%
%TA.AperFunction,Conductor*%
%TO.N,/YU*%
G36*
X14456931Y54708443D02*
G01*
X14459738Y54706371D01*
X14627852Y54538257D01*
X14631279Y54529984D01*
X14629571Y54523897D01*
X14302752Y53987464D01*
X14295521Y53982181D01*
X14288308Y53982731D01*
X13931804Y54129437D01*
X13925457Y54135755D01*
X13925436Y54135805D01*
X13779804Y54489700D01*
X13779825Y54498654D01*
X13786172Y54504972D01*
X13787166Y54505330D01*
X14448015Y54709278D01*
X14456931Y54708443D01*
G37*
%TD.AperFunction*%
%TD*%
%TA.AperFunction,Conductor*%
%TO.N,/YU*%
G36*
X14287138Y53983269D02*
G01*
X14293456Y53976922D01*
X14293591Y53968363D01*
X14057847Y53339593D01*
X14051734Y53333049D01*
X14046892Y53332000D01*
X13809108Y53332000D01*
X13800835Y53335427D01*
X13798153Y53339593D01*
X13562408Y53968365D01*
X13562712Y53977312D01*
X13568859Y53983268D01*
X13923500Y54131125D01*
X13932449Y54131145D01*
X14287138Y53983269D01*
G37*
%TD.AperFunction*%
%TD*%
%TA.AperFunction,Conductor*%
%TO.N,/YU*%
G36*
X21520311Y57291288D02*
G01*
X21526268Y57285139D01*
X21674123Y56930502D01*
X21674144Y56921548D01*
X21674123Y56921498D01*
X21526268Y56566862D01*
X21519921Y56560544D01*
X21511362Y56560409D01*
X20882593Y56796154D01*
X20876049Y56802267D01*
X20875000Y56807109D01*
X20875000Y57044892D01*
X20878427Y57053165D01*
X20882593Y57055847D01*
X21511364Y57291592D01*
X21520311Y57291288D01*
G37*
%TD.AperFunction*%
%TD*%
%TA.AperFunction,Conductor*%
%TO.N,/XL*%
G36*
X16192138Y59190269D02*
G01*
X16198456Y59183922D01*
X16198591Y59175363D01*
X15962847Y58546593D01*
X15956734Y58540049D01*
X15951892Y58539000D01*
X15714108Y58539000D01*
X15705835Y58542427D01*
X15703153Y58546593D01*
X15467408Y59175365D01*
X15467712Y59184312D01*
X15473859Y59190268D01*
X15828500Y59338125D01*
X15837449Y59338145D01*
X16192138Y59190269D01*
G37*
%TD.AperFunction*%
%TD*%
%TA.AperFunction,Conductor*%
%TO.N,/XL*%
G36*
X13445256Y55720853D02*
G01*
X13613370Y55552739D01*
X13616797Y55544466D01*
X13616277Y55541016D01*
X13412331Y54880175D01*
X13406617Y54873280D01*
X13397701Y54872445D01*
X13396699Y54872805D01*
X13042804Y55018437D01*
X13036457Y55024755D01*
X13036436Y55024805D01*
X12889730Y55381311D01*
X12889751Y55390263D01*
X12894462Y55395752D01*
X13430898Y55722573D01*
X13439744Y55723950D01*
X13445256Y55720853D01*
G37*
%TD.AperFunction*%
%TD*%
%TA.AperFunction,Conductor*%
%TO.N,/XR*%
G36*
X15223256Y53942853D02*
G01*
X15391370Y53774739D01*
X15394797Y53766466D01*
X15394277Y53763016D01*
X15190331Y53102175D01*
X15184617Y53095280D01*
X15175701Y53094445D01*
X15174699Y53094805D01*
X14820804Y53240437D01*
X14814457Y53246755D01*
X14814436Y53246805D01*
X14667730Y53603311D01*
X14667751Y53612263D01*
X14672462Y53617752D01*
X15208898Y53944573D01*
X15217744Y53945950D01*
X15223256Y53942853D01*
G37*
%TD.AperFunction*%
%TD*%
%TA.AperFunction,Conductor*%
%TO.N,/XR*%
G36*
X20631311Y56402288D02*
G01*
X20637268Y56396139D01*
X20785123Y56041502D01*
X20785144Y56032548D01*
X20785123Y56032498D01*
X20637268Y55677862D01*
X20630921Y55671544D01*
X20622362Y55671409D01*
X19993593Y55907154D01*
X19987049Y55913267D01*
X19986000Y55918109D01*
X19986000Y56155892D01*
X19989427Y56164165D01*
X19993593Y56166847D01*
X20622364Y56402592D01*
X20631311Y56402288D01*
G37*
%TD.AperFunction*%
%TD*%
%TA.AperFunction,Conductor*%
%TO.N,/RXD*%
G36*
X21139311Y70880288D02*
G01*
X21145268Y70874139D01*
X21293123Y70519502D01*
X21293144Y70510548D01*
X21293123Y70510498D01*
X21145268Y70155862D01*
X21138921Y70149544D01*
X21130362Y70149409D01*
X20501593Y70385154D01*
X20495049Y70391267D01*
X20494000Y70396109D01*
X20494000Y70633892D01*
X20497427Y70642165D01*
X20501593Y70644847D01*
X21130364Y70880592D01*
X21139311Y70880288D01*
G37*
%TD.AperFunction*%
%TD*%
%TA.AperFunction,Conductor*%
%TO.N,/RXD*%
G36*
X3642617Y61380311D02*
G01*
X3644401Y61378017D01*
X4003662Y60773663D01*
X4004944Y60764800D01*
X3999584Y60757627D01*
X3998107Y60756885D01*
X3643175Y60608907D01*
X3638644Y60608006D01*
X3255075Y60608965D01*
X3246810Y60612413D01*
X3243404Y60620694D01*
X3243605Y60622826D01*
X3385203Y61374207D01*
X3390103Y61381700D01*
X3396701Y61383738D01*
X3634344Y61383738D01*
X3642617Y61380311D01*
G37*
%TD.AperFunction*%
%TD*%
%TA.AperFunction,Conductor*%
%TO.N,/SCL*%
G36*
X4936256Y65753853D02*
G01*
X5104370Y65585739D01*
X5107797Y65577466D01*
X5107277Y65574016D01*
X4903331Y64913175D01*
X4897617Y64906280D01*
X4888701Y64905445D01*
X4887699Y64905805D01*
X4533804Y65051437D01*
X4527457Y65057755D01*
X4527436Y65057805D01*
X4380730Y65414311D01*
X4380751Y65423263D01*
X4385462Y65428752D01*
X4921898Y65755573D01*
X4930744Y65756950D01*
X4936256Y65753853D01*
G37*
%TD.AperFunction*%
%TD*%
%TA.AperFunction,Conductor*%
%TO.N,/SCL*%
G36*
X23679311Y69991288D02*
G01*
X23685268Y69985139D01*
X23833123Y69630502D01*
X23833144Y69621548D01*
X23833123Y69621498D01*
X23685268Y69266862D01*
X23678921Y69260544D01*
X23670362Y69260409D01*
X23041593Y69496154D01*
X23035049Y69502267D01*
X23034000Y69507109D01*
X23034000Y69744892D01*
X23037427Y69753165D01*
X23041593Y69755847D01*
X23670364Y69991592D01*
X23679311Y69991288D01*
G37*
%TD.AperFunction*%
%TD*%
%TA.AperFunction,Conductor*%
%TO.N,/SCL*%
G36*
X6435165Y53150573D02*
G01*
X6437847Y53146407D01*
X6673591Y52517638D01*
X6673287Y52508689D01*
X6667138Y52502732D01*
X6312502Y52354877D01*
X6303548Y52354856D01*
X6303498Y52354877D01*
X5948861Y52502732D01*
X5942543Y52509079D01*
X5942408Y52517636D01*
X6178153Y53146408D01*
X6184266Y53152951D01*
X6189108Y53154000D01*
X6426892Y53154000D01*
X6435165Y53150573D01*
G37*
%TD.AperFunction*%
%TD*%
%TA.AperFunction,Conductor*%
%TO.N,/SCL*%
G36*
X4898072Y65202759D02*
G01*
X4904221Y65196802D01*
X5182132Y64585499D01*
X5182436Y64576550D01*
X5179754Y64572384D01*
X5011616Y64404246D01*
X5003343Y64400819D01*
X4998501Y64401868D01*
X4387198Y64679779D01*
X4381085Y64686323D01*
X4381219Y64694881D01*
X4527437Y65050198D01*
X4533753Y65056543D01*
X4889119Y65202780D01*
X4898072Y65202759D01*
G37*
%TD.AperFunction*%
%TD*%
%TA.AperFunction,Conductor*%
%TO.N,Net-(U1-SCK{slash}SCL{slash}TX)*%
G36*
X7322572Y42965311D02*
G01*
X7325797Y42959205D01*
X7467393Y42207832D01*
X7465557Y42199067D01*
X7458062Y42194167D01*
X7455924Y42193965D01*
X7072355Y42193006D01*
X7067824Y42193907D01*
X6712892Y42341885D01*
X6706574Y42348232D01*
X6706595Y42357186D01*
X6707332Y42358656D01*
X7066599Y42963018D01*
X7073772Y42968377D01*
X7076656Y42968738D01*
X7314299Y42968738D01*
X7322572Y42965311D01*
G37*
%TD.AperFunction*%
%TD*%
%TA.AperFunction,Conductor*%
%TO.N,Net-(U1-SCK{slash}SCL{slash}TX)*%
G36*
X6803072Y65202759D02*
G01*
X6809221Y65196802D01*
X7087132Y64585499D01*
X7087436Y64576550D01*
X7084754Y64572384D01*
X6916616Y64404246D01*
X6908343Y64400819D01*
X6903501Y64401868D01*
X6292198Y64679779D01*
X6286085Y64686323D01*
X6286219Y64694881D01*
X6432437Y65050198D01*
X6438753Y65056543D01*
X6794119Y65202780D01*
X6803072Y65202759D01*
G37*
%TD.AperFunction*%
%TD*%
M02*
