G04 #@! TF.GenerationSoftware,KiCad,Pcbnew,5.1.6-c6e7f7d~87~ubuntu18.04.1*
G04 #@! TF.CreationDate,2022-09-30T15:40:45+03:00*
G04 #@! TF.ProjectId,MOD-LCD2.8RTP_Rev_C,4d4f442d-4c43-4443-922e-385254505f52,C*
G04 #@! TF.SameCoordinates,Original*
G04 #@! TF.FileFunction,Soldermask,Top*
G04 #@! TF.FilePolarity,Negative*
%FSLAX46Y46*%
G04 Gerber Fmt 4.6, Leading zero omitted, Abs format (unit mm)*
G04 Created by KiCad (PCBNEW 5.1.6-c6e7f7d~87~ubuntu18.04.1) date 2022-09-30 15:40:45*
%MOMM*%
%LPD*%
G01*
G04 APERTURE LIST*
%ADD10R,1.270000X1.701800*%
%ADD11R,1.371600X0.426600*%
%ADD12R,1.117600X0.863600*%
%ADD13R,1.117600X1.117600*%
%ADD14R,1.371600X3.911600*%
%ADD15C,1.301600*%
%ADD16R,1.501600X1.101600*%
%ADD17C,3.700000*%
%ADD18R,0.351600X1.401600*%
%ADD19R,2.601600X3.301600*%
%ADD20C,1.254000*%
%ADD21R,1.401600X0.351600*%
%ADD22R,2.701600X2.501600*%
%ADD23R,1.101600X0.351600*%
G04 APERTURE END LIST*
D10*
X71818500Y-113284000D03*
X70294500Y-113284000D03*
D11*
X60882500Y-114414999D03*
X60882500Y-115064999D03*
X60882500Y-115714999D03*
X60882500Y-116364999D03*
X60882500Y-117014999D03*
X60882500Y-117664999D03*
X60882500Y-118314999D03*
X60882500Y-118964999D03*
X60882500Y-119614999D03*
X60882500Y-120264999D03*
X68121500Y-120264999D03*
X68121500Y-119614999D03*
X68121500Y-118964999D03*
X68121500Y-118314999D03*
X68121500Y-117664999D03*
X68121500Y-117014999D03*
X68121500Y-116364999D03*
X68121500Y-115714999D03*
X68121500Y-115064999D03*
X68121500Y-114414999D03*
D12*
X72000000Y-122243000D03*
X72000000Y-121100000D03*
X72000000Y-119957000D03*
X70200000Y-122243000D03*
X70200000Y-121100000D03*
X70200000Y-119957000D03*
X71700000Y-125157000D03*
X71700000Y-126300000D03*
X71700000Y-127443000D03*
X71700000Y-131843000D03*
X71700000Y-130700000D03*
X71700000Y-129557000D03*
D13*
X61468000Y-105156000D03*
X61468000Y-103378000D03*
X61468000Y-110363000D03*
X61468000Y-112141000D03*
X73736200Y-132613400D03*
X75514200Y-132613400D03*
D14*
X78520000Y-117575000D03*
X78520000Y-111225000D03*
X81060000Y-117575000D03*
X81060000Y-111225000D03*
X83600000Y-117575000D03*
X83600000Y-111225000D03*
X86140000Y-117575000D03*
X86140000Y-111225000D03*
X88680000Y-117575000D03*
X88680000Y-111225000D03*
D15*
X87410000Y-114400000D03*
X79790000Y-114400000D03*
D16*
X67392560Y-130950040D03*
X67392560Y-132852500D03*
X69602360Y-131897460D03*
D13*
X62800000Y-126200000D03*
X64578000Y-126200000D03*
X62811000Y-127900000D03*
X64589000Y-127900000D03*
X62811000Y-129400000D03*
X64589000Y-129400000D03*
X62811000Y-131100000D03*
X64589000Y-131100000D03*
D17*
X91000000Y-59000000D03*
X49000000Y-59000000D03*
X49000000Y-137000000D03*
X91000000Y-137000000D03*
D13*
X66407000Y-110667800D03*
X64629000Y-110667800D03*
X77597000Y-125574000D03*
X77597000Y-123796000D03*
X75311000Y-125574001D03*
X75311000Y-123796001D03*
X67311000Y-127200000D03*
X69089000Y-127200000D03*
X67311000Y-129000000D03*
X69089000Y-129000000D03*
X69889000Y-105150000D03*
X68111000Y-105150000D03*
X65694476Y-105150000D03*
X63916476Y-105150000D03*
D18*
X86250000Y-102050000D03*
X85750000Y-102050000D03*
X85250000Y-102050000D03*
X84750000Y-102050000D03*
X84250000Y-102050000D03*
X83750000Y-102050000D03*
D19*
X88400000Y-99950000D03*
X78600000Y-99950000D03*
D18*
X83250000Y-102050000D03*
X82750000Y-102050000D03*
X82250000Y-102050000D03*
X81750000Y-102050000D03*
X81250000Y-102050000D03*
X80750000Y-102050000D03*
D20*
X91000000Y-130500000D03*
X49000000Y-95000000D03*
X91000000Y-95000000D03*
X55880000Y-137000000D03*
D21*
X57750000Y-128210000D03*
X57750000Y-127710000D03*
X57750000Y-127210000D03*
X57750000Y-126710000D03*
X57750000Y-126210000D03*
X57750000Y-125710000D03*
X57750000Y-125210000D03*
X57750000Y-124710000D03*
X57750000Y-124210000D03*
X57750000Y-123710000D03*
X57750000Y-123210000D03*
X57750000Y-122710000D03*
X57750000Y-122210000D03*
X57750000Y-121710000D03*
X57750000Y-121210000D03*
X57750000Y-120710000D03*
X57750000Y-120210000D03*
X57750000Y-119710000D03*
X57750000Y-119210000D03*
X57750000Y-118710000D03*
X57750000Y-118210000D03*
X57750000Y-117710000D03*
X57750000Y-117210000D03*
X57750000Y-116710000D03*
X57750000Y-116210000D03*
X57750000Y-115710000D03*
X57750000Y-115210000D03*
X57750000Y-114710000D03*
X57750000Y-114210000D03*
X57750000Y-113710000D03*
X57750000Y-113210000D03*
X57750000Y-112710000D03*
X57750000Y-112210000D03*
X57750000Y-111710000D03*
X57750000Y-111210000D03*
X57750000Y-110710000D03*
X57750000Y-110210000D03*
X57750000Y-109710000D03*
X57750000Y-109210000D03*
X57750000Y-108710000D03*
D22*
X55650000Y-130360000D03*
X55650000Y-101560000D03*
D21*
X57750000Y-107210000D03*
X57750000Y-106710000D03*
X57750000Y-103710000D03*
X57750000Y-106210000D03*
X57750000Y-104710000D03*
X57750000Y-108210000D03*
X57750000Y-107710000D03*
X57750000Y-104210000D03*
X57750000Y-105210000D03*
X57750000Y-105710000D03*
D13*
X84582000Y-126873000D03*
X82804000Y-126873000D03*
X84582001Y-124968000D03*
X82804001Y-124968000D03*
D23*
X86114000Y-128643001D03*
X86114000Y-129143001D03*
X86114000Y-129643001D03*
X86114000Y-130143001D03*
X86114000Y-130643001D03*
X81314000Y-130643001D03*
X81314000Y-130143001D03*
X81314000Y-129643001D03*
X81314000Y-129143001D03*
X81314000Y-128643001D03*
M02*
