M48
; DRILL file {KiCad 5.1.6-c6e7f7d~87~ubuntu18.04.1} date Fri Sep 30 15:40:49 2022
; FORMAT={-:-/ absolute / inch / decimal}
; #@! TF.CreationDate,2022-09-30T15:40:49+03:00
; #@! TF.GenerationSoftware,Kicad,Pcbnew,5.1.6-c6e7f7d~87~ubuntu18.04.1
; #@! TF.FileFunction,Plated,1,2,PTH
FMAT,2
INCH
T1C0.0157
%
G90
G05
T1
X1.825Y-2.2
X1.825Y-2.45
X1.825Y-2.55
X1.825Y-2.65
X1.825Y-2.75
X1.825Y-2.85
X1.825Y-2.95
X1.825Y-3.05
X1.825Y-3.15
X1.825Y-3.25
X1.825Y-3.35
X1.825Y-3.45
X1.825Y-3.55
X1.825Y-3.65
X1.825Y-3.75
X1.825Y-3.85
X1.825Y-5.5
X1.9Y-3.85
X2.0Y-3.85
X2.0Y-3.95
X2.0Y-4.05
X2.0Y-4.15
X2.0Y-4.25
X2.0Y-4.35
X2.0Y-4.45
X2.0Y-4.55
X2.0Y-4.65
X2.0Y-4.75
X2.0Y-4.85
X2.0Y-4.95
X2.0Y-5.05
X2.0Y-5.15
X2.0Y-5.25
X2.005Y-2.2
X2.005Y-2.45
X2.1Y-2.2
X2.1Y-2.275
X2.1Y-2.35
X2.1Y-2.45
X2.1Y-3.75
X2.1Y-3.85
X2.1Y-3.95
X2.1Y-4.05
X2.1Y-4.15
X2.1Y-4.25
X2.1Y-4.35
X2.1Y-4.45
X2.1Y-4.55
X2.1Y-4.65
X2.1Y-4.75
X2.1Y-4.85
X2.1Y-4.95
X2.1Y-5.05
X2.1Y-5.15
X2.1Y-5.25
X2.1Y-5.35
X2.1Y-5.425
X2.1Y-5.5
X2.1909Y-4.327
X2.2Y-2.2
X2.2Y-2.35
X2.2Y-3.75
X2.2Y-5.25
X2.2Y-5.5
X2.3Y-2.2
X2.3Y-2.35
X2.3Y-3.75
X2.3Y-3.95
X2.3Y-5.25
X2.3Y-5.35
X2.3Y-5.5
X2.336Y-4.4
X2.337Y-4.475
X2.339Y-4.758
X2.3443Y-4.5271
X2.35Y-4.07
X2.386Y-4.464
X2.4Y-2.2
X2.4Y-2.35
X2.4Y-3.75
X2.4Y-3.95
X2.4Y-5.25
X2.4Y-5.35
X2.4Y-5.5
X2.415Y-4.795
X2.45Y-4.5675
X2.45Y-4.67
X2.4613Y-4.0713
X2.463Y-4.1398
X2.481Y-4.349
X2.49Y-4.655
X2.4966Y-4.8216
X2.5Y-2.2
X2.5Y-2.35
X2.5Y-2.45
X2.5Y-3.75
X2.5Y-3.95
X2.5Y-5.25
X2.5Y-5.35
X2.5Y-5.5
X2.51Y-4.19
X2.5429Y-5.0
X2.5429Y-5.065
X2.5429Y-5.13
X2.555Y-4.455
X2.5575Y-4.8075
X2.58Y-4.545
X2.595Y-5.035
X2.595Y-5.095
X2.595Y-5.16
X2.6Y-2.2
X2.6Y-2.35
X2.6Y-3.75
X2.6Y-3.95
X2.6Y-5.35
X2.6Y-5.5
X2.62Y-4.575
X2.62Y-4.6611
X2.652Y-4.832
X2.655Y-4.225
X2.655Y-4.455
X2.667Y-4.769
X2.691Y-4.332
X2.7Y-2.2
X2.7Y-2.35
X2.7Y-3.75
X2.7Y-3.95
X2.7Y-5.35
X2.7Y-5.5
X2.705Y-4.455
X2.719Y-4.768
X2.72Y-4.97
X2.755Y-4.07
X2.7638Y-4.69
X2.77Y-4.405
X2.774Y-5.138
X2.795Y-4.14
X2.8Y-2.2
X2.8Y-2.35
X2.8Y-3.75
X2.8Y-3.95
X2.8Y-5.35
X2.8Y-5.5
X2.8228Y-5.06
X2.8351Y-4.6891
X2.8651Y-4.4551
X2.875Y-4.89
X2.8775Y-4.7675
X2.8786Y-4.8127
X2.891Y-5.005
X2.895Y-4.85
X2.9Y-2.2
X2.9Y-2.35
X2.9Y-3.75
X2.9Y-3.95
X2.9Y-5.35
X2.9Y-5.5
X2.93Y-4.6022
X2.94Y-4.47
X2.9402Y-4.2152
X2.9421Y-4.1724
X2.9455Y-4.2612
X2.96Y-4.51
X2.9886Y-4.6266
X2.9914Y-4.5416
X3.0Y-2.2
X3.0Y-2.35
X3.0Y-2.45
X3.0Y-3.75
X3.0Y-3.85
X3.0Y-3.95
X3.0Y-5.35
X3.0Y-5.5
X3.021Y-5.222
X3.045Y-4.275
X3.045Y-4.315
X3.0547Y-5.1379
X3.0547Y-5.1784
X3.0549Y-5.0985
X3.055Y-5.055
X3.065Y-4.765
X3.065Y-4.805
X3.083Y-4.058
X3.085Y-4.47
X3.09Y-4.275
X3.1Y-2.2
X3.1Y-2.35
X3.1Y-2.45
X3.1Y-3.75
X3.1Y-3.85
X3.1Y-5.25
X3.1Y-5.35
X3.1Y-5.5
X3.1913Y-4.535
X3.2Y-2.2
X3.2Y-2.35
X3.2Y-2.45
X3.2Y-3.75
X3.2Y-3.85
X3.2Y-5.25
X3.2Y-5.35
X3.2Y-5.5
X3.2052Y-4.4698
X3.292Y-4.476
X3.292Y-4.525
X3.3Y-2.2
X3.3Y-2.35
X3.3Y-2.45
X3.3Y-3.75
X3.3Y-3.85
X3.3Y-5.25
X3.3Y-5.35
X3.3Y-5.5
X3.33Y-4.88
X3.341Y-4.235
X3.385Y-4.92
X3.385Y-4.995
X3.3897Y-4.2203
X3.39Y-4.78
X3.395Y-4.08
X3.4Y-2.2
X3.4Y-2.275
X3.4Y-2.35
X3.4Y-2.45
X3.4Y-3.75
X3.4Y-3.85
X3.4Y-5.25
X3.4Y-5.35
X3.4Y-5.425
X3.4Y-5.5
X3.468Y-4.058
X3.481Y-4.141
X3.4913Y-4.2637
X3.4913Y-4.4813
X3.5Y-2.2
X3.5Y-2.45
X3.5Y-3.75
X3.5Y-3.85
X3.5Y-5.25
X3.6Y-3.85
X3.6Y-3.95
X3.6Y-4.05
X3.6Y-4.15
X3.6Y-4.25
X3.6Y-4.35
X3.6Y-4.45
X3.6Y-4.55
X3.6Y-4.65
X3.6Y-4.75
X3.6Y-4.85
X3.6Y-4.95
X3.6Y-5.05
X3.6Y-5.25
X3.7Y-2.2
X3.7Y-2.45
X3.7Y-2.55
X3.7Y-2.65
X3.7Y-2.75
X3.7Y-2.85
X3.7Y-2.95
X3.7Y-3.05
X3.7Y-3.15
X3.7Y-3.25
X3.7Y-3.35
X3.7Y-3.45
X3.7Y-3.55
X3.7Y-3.65
X3.7Y-3.75
X3.7Y-3.85
X3.7Y-3.95
X3.7Y-4.05
X3.7Y-4.15
X3.7Y-4.25
X3.7Y-4.35
X3.7Y-4.45
X3.7Y-4.55
X3.7Y-4.65
X3.7Y-4.75
X3.7Y-4.85
X3.7Y-4.95
X3.7Y-5.05
X3.7Y-5.15
X3.7Y-5.25
X3.7Y-5.5
T0
M30
